<svg width="16" height="16" viewBox="0 0 16 16" fill="none" xmlns="http://www.w3.org/2000/svg">
<path d="M15.1559 14.5444H8.00195L15.4914 7.05497C15.8171 6.72852 16 6.28621 16 5.82507C16 5.36393 15.8171 4.92162 15.4914 4.59517L11.9133 1.0172C11.5871 0.691042 11.1448 0.507812 10.6835 0.507812C10.2222 0.507813 9.77981 0.691042 9.45362 1.0172L4.98153 5.48929L4.98113 5.48969L4.98074 5.49008L0.50864 9.96218C0.182924 10.2886 0 10.7309 0 11.1921C0 11.6532 0.182924 12.0955 0.50864 12.422L3.44099 15.3542C3.52995 15.4432 3.65058 15.4932 3.77637 15.4932H15.1559C15.2817 15.4932 15.4024 15.4432 15.4914 15.3542C15.5803 15.2653 15.6303 15.1446 15.6303 15.0188C15.6303 14.893 15.5803 14.7723 15.4914 14.6833C15.4024 14.5944 15.2817 14.5444 15.1559 14.5444ZM10.1244 1.68804C10.2728 1.54 10.4739 1.45687 10.6835 1.45687C10.8931 1.45687 11.0942 1.54 11.2426 1.68804L14.8205 5.26602C14.9686 5.41444 15.0517 5.6155 15.0517 5.82511C15.0517 6.03472 14.9686 6.23578 14.8205 6.3842L10.6834 10.5212L5.98736 5.82507L10.1244 1.68804ZM3.97292 14.5444L1.17949 11.7511C1.03144 11.6027 0.948307 11.4017 0.948307 11.192C0.948307 10.9824 1.03144 10.7814 1.17949 10.6329L5.31651 6.49592L10.0127 11.192L6.66018 14.5444H3.97292Z" fill="#335BC0"/>
</svg>
