<svg width="231" height="258" viewBox="0 0 231 258" fill="none" xmlns="http://www.w3.org/2000/svg">
<path d="M0.984 16V7.54H2.232V16H0.984ZM4.05122 16V10.144H5.22722V11.116C5.42722 10.764 5.69922 10.496 6.04322 10.312C6.39522 10.128 6.78722 10.036 7.21922 10.036C8.60322 10.036 9.29522 10.82 9.29522 12.388V16H8.08322V12.46C8.08322 11.956 7.98322 11.588 7.78322 11.356C7.59122 11.124 7.28722 11.008 6.87122 11.008C6.38322 11.008 5.99122 11.164 5.69522 11.476C5.40722 11.78 5.26322 12.184 5.26322 12.688V16H4.05122ZM10.9653 18.16V10.144H12.1533V11.14C12.3213 10.804 12.5773 10.536 12.9213 10.336C13.2653 10.136 13.6613 10.036 14.1093 10.036C14.6293 10.036 15.0813 10.16 15.4653 10.408C15.8573 10.656 16.1573 11.008 16.3653 11.464C16.5813 11.912 16.6893 12.448 16.6893 13.072C16.6893 13.696 16.5813 14.236 16.3653 14.692C16.1573 15.148 15.8573 15.5 15.4653 15.748C15.0813 15.988 14.6293 16.108 14.1093 16.108C13.6773 16.108 13.2893 16.016 12.9453 15.832C12.6093 15.64 12.3533 15.38 12.1773 15.052V18.16H10.9653ZM13.8093 15.172C14.3133 15.172 14.7133 14.992 15.0093 14.632C15.3133 14.272 15.4653 13.752 15.4653 13.072C15.4653 12.392 15.3133 11.876 15.0093 11.524C14.7133 11.164 14.3133 10.984 13.8093 10.984C13.3053 10.984 12.9013 11.164 12.5973 11.524C12.3013 11.876 12.1533 12.392 12.1533 13.072C12.1533 13.752 12.3013 14.272 12.5973 14.632C12.9013 14.992 13.3053 15.172 13.8093 15.172ZM20.1431 16.108C18.7271 16.108 18.0191 15.32 18.0191 13.744V10.144H19.2311V13.756C19.2311 14.228 19.3271 14.576 19.5191 14.8C19.7111 15.024 20.0151 15.136 20.4311 15.136C20.8871 15.136 21.2551 14.984 21.5351 14.68C21.8231 14.376 21.9671 13.968 21.9671 13.456V10.144H23.1791V16H22.0031V15.064C21.8111 15.408 21.5551 15.668 21.2351 15.844C20.9151 16.02 20.5511 16.108 20.1431 16.108ZM27.3832 16.108C26.6472 16.108 26.0992 15.92 25.7392 15.544C25.3792 15.168 25.1992 14.624 25.1992 13.912V11.08H24.0592V10.144H25.1992V8.38H26.4112V10.144H28.2232V11.08H26.4112V13.816C26.4112 14.24 26.4992 14.56 26.6752 14.776C26.8592 14.992 27.1552 15.1 27.5632 15.1C27.6912 15.1 27.8152 15.088 27.9352 15.064C28.0552 15.032 28.1752 14.996 28.2952 14.956L28.4872 15.868C28.3672 15.94 28.1992 15.996 27.9832 16.036C27.7752 16.084 27.5752 16.108 27.3832 16.108ZM32.5543 16V7.54H33.8023V14.932H37.9903V16H32.5543ZM40.9154 16.108C40.5074 16.108 40.1434 16.028 39.8234 15.868C39.5034 15.708 39.2474 15.492 39.0554 15.22C38.8714 14.948 38.7794 14.64 38.7794 14.296C38.7794 13.864 38.8874 13.524 39.1034 13.276C39.3274 13.028 39.6914 12.848 40.1954 12.736C40.7074 12.624 41.3954 12.568 42.2594 12.568H42.6674V12.256C42.6674 11.8 42.5714 11.472 42.3794 11.272C42.1874 11.072 41.8714 10.972 41.4314 10.972C41.0954 10.972 40.7594 11.024 40.4234 11.128C40.0874 11.224 39.7434 11.38 39.3914 11.596L39.0194 10.744C39.3234 10.528 39.7034 10.356 40.1594 10.228C40.6154 10.1 41.0514 10.036 41.4674 10.036C42.2674 10.036 42.8594 10.228 43.2434 10.612C43.6274 10.988 43.8194 11.58 43.8194 12.388V16H42.6794V15.028C42.5354 15.364 42.3114 15.628 42.0074 15.82C41.7034 16.012 41.3394 16.108 40.9154 16.108ZM41.1554 15.244C41.5874 15.244 41.9474 15.092 42.2354 14.788C42.5234 14.484 42.6674 14.1 42.6674 13.636V13.312H42.2714C41.6874 13.312 41.2274 13.34 40.8914 13.396C40.5634 13.452 40.3274 13.548 40.1834 13.684C40.0474 13.812 39.9794 13.992 39.9794 14.224C39.9794 14.528 40.0834 14.776 40.2914 14.968C40.4994 15.152 40.7874 15.244 41.1554 15.244ZM46.0301 18.16L47.0741 15.844L44.6261 10.144H45.9221L47.7221 14.596L49.5461 10.144H50.7941L47.3021 18.16H46.0301ZM54.307 16.108C53.347 16.108 52.591 15.84 52.039 15.304C51.487 14.76 51.211 14.02 51.211 13.084C51.211 12.484 51.331 11.956 51.571 11.5C51.819 11.036 52.159 10.676 52.591 10.42C53.023 10.164 53.519 10.036 54.079 10.036C54.887 10.036 55.523 10.296 55.987 10.816C56.451 11.328 56.683 12.036 56.683 12.94V13.348H52.387C52.475 14.564 53.119 15.172 54.319 15.172C54.655 15.172 54.983 15.12 55.303 15.016C55.631 14.912 55.939 14.74 56.227 14.5L56.587 15.34C56.323 15.58 55.983 15.768 55.567 15.904C55.151 16.04 54.731 16.108 54.307 16.108ZM54.127 10.888C53.623 10.888 53.223 11.044 52.927 11.356C52.631 11.668 52.451 12.084 52.387 12.604H55.663C55.639 12.06 55.495 11.64 55.231 11.344C54.967 11.04 54.599 10.888 54.127 10.888ZM58.0043 16V10.144H59.1803V11.188C59.4843 10.492 60.1163 10.104 61.0763 10.024L61.4723 10L61.5563 11.032L60.8243 11.104C59.7603 11.208 59.2283 11.756 59.2283 12.748V16H58.0043Z" fill="#191919"/>
<path d="M158.778 16V7.54H160.026V11.188H164.766V7.54H166.002V16H164.766V12.232H160.026V16H158.778ZM167.737 8.788V7.528H169.153V8.788H167.737ZM167.845 16V10.144H169.057V16H167.845ZM172.995 16.108C172.483 16.108 172.031 15.988 171.639 15.748C171.255 15.5 170.955 15.148 170.739 14.692C170.523 14.236 170.415 13.696 170.415 13.072C170.415 12.448 170.523 11.912 170.739 11.464C170.955 11.008 171.255 10.656 171.639 10.408C172.023 10.16 172.475 10.036 172.995 10.036C173.435 10.036 173.827 10.132 174.171 10.324C174.515 10.516 174.771 10.776 174.939 11.104V7.54H176.151V16H174.963V14.98C174.795 15.332 174.535 15.608 174.183 15.808C173.839 16.008 173.443 16.108 172.995 16.108ZM173.307 15.172C173.803 15.172 174.203 14.992 174.507 14.632C174.811 14.272 174.963 13.752 174.963 13.072C174.963 12.392 174.811 11.876 174.507 11.524C174.203 11.164 173.803 10.984 173.307 10.984C172.803 10.984 172.399 11.164 172.095 11.524C171.791 11.876 171.639 12.392 171.639 13.072C171.639 13.752 171.791 14.272 172.095 14.632C172.399 14.992 172.803 15.172 173.307 15.172ZM180.085 16.108C179.573 16.108 179.121 15.988 178.729 15.748C178.345 15.5 178.045 15.148 177.829 14.692C177.613 14.236 177.505 13.696 177.505 13.072C177.505 12.448 177.613 11.912 177.829 11.464C178.045 11.008 178.345 10.656 178.729 10.408C179.113 10.16 179.565 10.036 180.085 10.036C180.525 10.036 180.917 10.132 181.261 10.324C181.605 10.516 181.861 10.776 182.029 11.104V7.54H183.241V16H182.053V14.98C181.885 15.332 181.625 15.608 181.273 15.808C180.929 16.008 180.533 16.108 180.085 16.108ZM180.397 15.172C180.893 15.172 181.293 14.992 181.597 14.632C181.901 14.272 182.053 13.752 182.053 13.072C182.053 12.392 181.901 11.876 181.597 11.524C181.293 11.164 180.893 10.984 180.397 10.984C179.893 10.984 179.489 11.164 179.185 11.524C178.881 11.876 178.729 12.392 178.729 13.072C178.729 13.752 178.881 14.272 179.185 14.632C179.489 14.992 179.893 15.172 180.397 15.172ZM187.691 16.108C186.731 16.108 185.975 15.84 185.423 15.304C184.871 14.76 184.595 14.02 184.595 13.084C184.595 12.484 184.715 11.956 184.955 11.5C185.203 11.036 185.543 10.676 185.975 10.42C186.407 10.164 186.903 10.036 187.463 10.036C188.271 10.036 188.907 10.296 189.371 10.816C189.835 11.328 190.067 12.036 190.067 12.94V13.348H185.771C185.859 14.564 186.503 15.172 187.703 15.172C188.039 15.172 188.367 15.12 188.687 15.016C189.015 14.912 189.323 14.74 189.611 14.5L189.971 15.34C189.707 15.58 189.367 15.768 188.951 15.904C188.535 16.04 188.115 16.108 187.691 16.108ZM187.511 10.888C187.007 10.888 186.607 11.044 186.311 11.356C186.015 11.668 185.835 12.084 185.771 12.604H189.047C189.023 12.06 188.879 11.64 188.615 11.344C188.351 11.04 187.983 10.888 187.511 10.888ZM191.388 16V10.144H192.564V11.116C192.764 10.764 193.036 10.496 193.38 10.312C193.732 10.128 194.124 10.036 194.556 10.036C195.94 10.036 196.632 10.82 196.632 12.388V16H195.42V12.46C195.42 11.956 195.32 11.588 195.12 11.356C194.928 11.124 194.624 11.008 194.208 11.008C193.72 11.008 193.328 11.164 193.032 11.476C192.744 11.78 192.6 12.184 192.6 12.688V16H191.388ZM201.587 16V7.54H202.835V14.932H207.023V16H201.587ZM209.948 16.108C209.54 16.108 209.176 16.028 208.856 15.868C208.536 15.708 208.28 15.492 208.088 15.22C207.904 14.948 207.812 14.64 207.812 14.296C207.812 13.864 207.92 13.524 208.136 13.276C208.36 13.028 208.724 12.848 209.228 12.736C209.74 12.624 210.428 12.568 211.292 12.568H211.7V12.256C211.7 11.8 211.604 11.472 211.412 11.272C211.22 11.072 210.904 10.972 210.464 10.972C210.128 10.972 209.792 11.024 209.456 11.128C209.12 11.224 208.776 11.38 208.424 11.596L208.052 10.744C208.356 10.528 208.736 10.356 209.192 10.228C209.648 10.1 210.084 10.036 210.5 10.036C211.3 10.036 211.892 10.228 212.276 10.612C212.66 10.988 212.852 11.58 212.852 12.388V16H211.712V15.028C211.568 15.364 211.344 15.628 211.04 15.82C210.736 16.012 210.372 16.108 209.948 16.108ZM210.188 15.244C210.62 15.244 210.98 15.092 211.268 14.788C211.556 14.484 211.7 14.1 211.7 13.636V13.312H211.304C210.72 13.312 210.26 13.34 209.924 13.396C209.596 13.452 209.36 13.548 209.216 13.684C209.08 13.812 209.012 13.992 209.012 14.224C209.012 14.528 209.116 14.776 209.324 14.968C209.532 15.152 209.82 15.244 210.188 15.244ZM215.062 18.16L216.106 15.844L213.658 10.144H214.954L216.754 14.596L218.578 10.144H219.826L216.334 18.16H215.062ZM223.339 16.108C222.379 16.108 221.623 15.84 221.071 15.304C220.519 14.76 220.243 14.02 220.243 13.084C220.243 12.484 220.363 11.956 220.603 11.5C220.851 11.036 221.191 10.676 221.623 10.42C222.055 10.164 222.551 10.036 223.111 10.036C223.919 10.036 224.555 10.296 225.019 10.816C225.483 11.328 225.715 12.036 225.715 12.94V13.348H221.419C221.507 14.564 222.151 15.172 223.351 15.172C223.687 15.172 224.015 15.12 224.335 15.016C224.663 14.912 224.971 14.74 225.259 14.5L225.619 15.34C225.355 15.58 225.015 15.768 224.599 15.904C224.183 16.04 223.763 16.108 223.339 16.108ZM223.159 10.888C222.655 10.888 222.255 11.044 221.959 11.356C221.663 11.668 221.483 12.084 221.419 12.604H224.695C224.671 12.06 224.527 11.64 224.263 11.344C223.999 11.04 223.631 10.888 223.159 10.888ZM227.037 16V10.144H228.213V11.188C228.517 10.492 229.149 10.104 230.109 10.024L230.505 10L230.589 11.032L229.857 11.104C228.793 11.208 228.261 11.756 228.261 12.748V16H227.037Z" fill="#191919"/>
<path d="M29.7455 47.4907L169.32 53.4149M169.32 53.4149L162.706 47.2198M169.32 53.4149L162.205 59.0273" stroke="#575757" stroke-linecap="round" stroke-linejoin="round"/>
<path d="M30.2553 111.715L168.411 143.275M168.411 143.275L162.932 135.962M168.411 143.275L160.3 147.484" stroke="#575757" stroke-linecap="round" stroke-linejoin="round"/>
<path d="M37.8861 52.0286L172.577 129.372M172.577 129.372L168.895 120.444M172.577 129.372L163.01 130.692" stroke="#575757" stroke-linecap="round" stroke-linejoin="round"/>
<path d="M32.8646 53.9333L173.91 212.067M173.91 212.067L171.383 200.356M173.91 212.067L162.564 208.223" stroke="#575757" stroke-linecap="round" stroke-linejoin="round"/>
<path d="M30.261 110.767L168.206 223.268M168.206 223.268L165.157 213.156M168.206 223.268L157.687 222.315" stroke="#575757" stroke-linecap="round" stroke-linejoin="round"/>
<path d="M29.8347 176.443L168.581 237.264M168.581 237.264L164.129 228.861M168.581 237.264L159.385 239.685" stroke="#575757" stroke-linecap="round" stroke-linejoin="round"/>
<path d="M30.8767 242.811L173.488 247.628M173.488 247.628L166.674 241.485M173.488 247.628L166.275 253.297" stroke="#575757" stroke-linecap="round" stroke-linejoin="round"/>
<path d="M31.9468 241.004L179.916 169.756M179.916 169.756L170.075 167.936M179.916 169.756L175.202 178.584" stroke="#575757" stroke-linecap="round" stroke-linejoin="round"/>
<path d="M27.0188 242.315L190.901 88.6229M190.901 88.6229L178.799 91.8713M190.901 88.6229L186.884 100.492" stroke="#575757" stroke-linecap="round" stroke-linejoin="round"/>
<path d="M29.8166 179.427L169.534 154.973M169.534 154.973L161.644 150.355M169.534 154.973L163.682 161.996" stroke="#575757" stroke-linecap="round" stroke-linejoin="round"/>
<path d="M29.6722 179.269L174.693 80.4276M174.693 80.4276L164.233 80.4058M174.693 80.4276L170.889 90.1715" stroke="#575757" stroke-linecap="round" stroke-linejoin="round"/>
<path d="M29.7688 114.509L169.86 67.6689M169.86 67.6689L161.096 64.3684M169.86 67.6689L164.844 75.5767" stroke="#575757" stroke-linecap="round" stroke-linejoin="round"/>
<circle cx="31.8636" cy="177.045" r="8.86364" fill="black"/>
<circle cx="31.8636" cy="242.045" r="8.86364" fill="black"/>
<circle cx="31.8636" cy="47.0453" r="8.86364" fill="black"/>
<circle cx="31.8636" cy="112.045" r="8.86364" fill="black"/>
<circle cx="196.273" cy="59.4545" r="27.8636" fill="#C4C4C4" stroke="black"/>
<circle cx="196.273" cy="144.545" r="27.8636" fill="#C4C4C4" stroke="black"/>
<circle cx="196.273" cy="229.636" r="27.8636" fill="#C4C4C4" stroke="black"/>
</svg>
