<svg width="17" height="20" viewBox="0 0 17 20" fill="none" xmlns="http://www.w3.org/2000/svg">
<path d="M10.8854 17.9999H12.6632V16.2222H10.8854V17.9999ZM14.441 7.33328H16.2188V5.5555H14.441V7.33328ZM0.21875 3.77772V16.2222C0.21875 17.1999 1.01875 17.9999 1.99653 17.9999H5.55208V16.2222H1.99653V3.77772H5.55208V1.99995H1.99653C1.01875 1.99995 0.21875 2.79995 0.21875 3.77772ZM14.441 1.99995V3.77772H16.2188C16.2188 2.79995 15.4187 1.99995 14.441 1.99995ZM7.32986 19.7777H9.10764V0.222168H7.32986V19.7777ZM14.441 14.4444H16.2188V12.6666H14.441V14.4444ZM10.8854 3.77772H12.6632V1.99995H10.8854V3.77772ZM14.441 10.8888H16.2188V9.11106H14.441V10.8888ZM14.441 17.9999C15.4187 17.9999 16.2188 17.1999 16.2188 16.2222H14.441V17.9999Z" fill="#335BC0"/>
</svg>
