<svg width="10" height="10" viewBox="0 0 10 10" fill="none" xmlns="http://www.w3.org/2000/svg">
<path d="M4.49649 7.49414V4.49649H5.50351V7.49414H4.49649ZM5 0C6.38173 0 7.5605 0.4879 8.5363 1.4637C9.5121 2.4395 10 3.61436 10 4.98829C10 6.36222 9.5121 7.53708 8.5363 8.51288C7.5605 9.48868 6.38173 9.97658 5 9.97658C3.61827 9.97658 2.4395 9.48868 1.4637 8.51288C0.4879 7.53708 0 6.36222 0 4.98829C0 3.61436 0.4879 2.4395 1.4637 1.4637C2.4395 0.4879 3.61827 0 5 0ZM5 8.99297C6.1007 8.99297 7.04137 8.60265 7.82201 7.82201C8.60265 7.04137 8.99297 6.0968 8.99297 4.98829C8.99297 3.87978 8.60265 2.93521 7.82201 2.15457C7.04137 1.37393 6.1007 0.983607 5 0.983607C3.8993 0.983607 2.95863 1.37393 2.17799 2.15457C1.39735 2.93521 1.00703 3.87978 1.00703 4.98829C1.00703 6.0968 1.39735 7.04137 2.17799 7.82201C2.95863 8.60265 3.8993 8.99297 5 8.99297ZM4.49649 3.48946V2.48244H5.50351V3.48946H4.49649Z" fill="#393939"/>
</svg>
