<svg width="623" height="416" viewBox="0 0 623 416" fill="none" xmlns="http://www.w3.org/2000/svg">
<g clip-path="url(#clip0)">
<g clip-path="url(#clip1)">
<path d="M-22 632.667H644.667V-34H-22V632.667Z" fill="#D5F5F4"/>
<path d="M347.848 186.107C347.169 182.1 343.976 179.063 340.13 179.063C339.493 179.063 338.877 179.156 338.285 179.312C336.92 171.903 330.957 166.324 323.808 166.324C318.032 166.324 313.033 169.968 310.604 175.275C309.742 175.065 308.848 174.951 307.93 174.951C303.982 174.951 300.473 176.997 298.226 180.175C297.088 179.469 295.776 179.063 294.376 179.063C290.532 179.063 287.337 182.1 286.658 186.107H347.848Z" fill="white"/>
</g>
<path d="M172.391 350.682C172.391 385.92 143.681 414.486 108.265 414.486C72.8486 414.486 44.1393 385.92 44.1393 350.682C44.1393 315.444 72.8486 286.877 108.265 286.877C143.681 286.877 172.391 315.444 172.391 350.682Z" fill="#58D8D2"/>
<path d="M567.698 290.396L559.605 275.632C559.605 275.632 452.025 177.206 245.522 177.206C129.286 177.206 43.9646 252.256 43.9646 252.256L48.7566 290.396H567.698Z" fill="#20BCBC"/>
<path d="M56.3308 350.683L156.241 392.656L171.587 384.309C177.863 380.036 185.291 377.75 192.895 377.75H567.024L572.867 365.151C583.193 342.889 582.325 317.079 570.525 295.553L559.604 275.632C559.604 275.632 559.127 275.197 558.199 274.402H46.7481L56.3308 350.683Z" fill="#58D8D2"/>
<path d="M134.233 220.267L139.549 268.709C140.832 280.39 145.82 291.337 153.766 299.906L192.428 341.597C195.618 345.04 200.074 346.991 204.738 346.991H400.516C409.841 346.991 417.401 339.338 417.401 329.897V225.189C417.401 225.189 256.98 164.902 134.233 220.267Z" fill="#FDFEFE"/>
<path d="M156.491 223.958V242.413H182.442C194.468 242.413 206.147 246.431 215.603 253.826L235.63 269.48H405.036V233.8C405.036 233.8 272.726 180.897 156.491 223.958Z" fill="#D5F5F4"/>
<path d="M119.799 350.683C119.799 357.02 114.635 362.158 108.265 362.158C101.894 362.158 96.7301 357.02 96.7301 350.683C96.7301 344.344 101.894 339.206 108.265 339.206C114.635 339.206 119.799 344.344 119.799 350.683Z" fill="#20BCBC"/>
<path d="M46.7474 274.402H92.1901C100.386 274.402 107.029 267.792 107.029 259.638H44.8928L46.7474 274.402Z" fill="#FFAE4D"/>
<path d="M163.202 310.082L192.427 341.597C195.618 345.04 200.075 346.991 204.738 346.991H400.515C409.84 346.991 417.4 339.338 417.4 329.898V310.082H163.202Z" fill="#F4D7D9"/>
<path d="M564.937 350.682C564.937 385.92 536.228 414.486 500.811 414.486C465.396 414.486 436.685 385.92 436.685 350.682C436.685 315.444 465.396 286.877 500.811 286.877C536.228 286.877 564.937 315.444 564.937 350.682Z" fill="#25496D"/>
<path d="M515.476 350.683C515.476 358.741 508.91 365.273 500.811 365.273C492.712 365.273 486.147 358.741 486.147 350.683C486.147 342.625 492.712 336.091 500.811 336.091C508.91 336.091 515.476 342.625 515.476 350.683Z" fill="#58D8D2"/>
<path d="M501.044 332.662C503.107 332.662 505.08 333.021 506.928 333.653L517.863 301.998C512.588 300.194 506.935 299.2 501.044 299.2C494.982 299.2 489.167 300.248 483.759 302.154L495 333.711C496.894 333.044 498.922 332.662 501.044 332.662Z" fill="#58D8D2"/>
<path d="M500.578 369.331C498.515 369.331 496.542 368.971 494.695 368.34L483.759 399.994C489.034 401.799 494.687 402.791 500.578 402.791C506.641 402.791 512.457 401.744 517.863 399.837L506.622 368.28C504.729 368.947 502.701 369.331 500.578 369.331Z" fill="#58D8D2"/>
<path d="M549.9 334.03L518.182 345.215C518.854 347.098 519.238 349.116 519.238 351.228C519.238 353.281 518.877 355.244 518.242 357.081L550.057 367.961C551.87 362.714 552.869 357.088 552.869 351.228C552.869 345.195 551.816 339.409 549.9 334.03Z" fill="#58D8D2"/>
<path d="M482.384 350.763C482.384 348.712 482.745 346.748 483.38 344.91L451.565 334.03C449.752 339.278 448.755 344.903 448.755 350.763C448.755 356.796 449.807 362.582 451.724 367.961L483.44 356.778C482.768 354.894 482.384 352.876 482.384 350.763Z" fill="#58D8D2"/>
<path d="M513.676 364.124C512.217 365.575 510.566 366.709 508.812 367.562L523.576 397.64C528.588 395.204 533.29 391.929 537.456 387.784C541.744 383.519 545.11 378.688 547.58 373.535L517.204 359.129C516.34 360.933 515.177 362.63 513.676 364.124Z" fill="#58D8D2"/>
<path d="M487.947 337.867C489.405 336.416 491.056 335.281 492.811 334.428L478.047 304.351C473.035 306.787 468.332 310.063 464.167 314.206C459.879 318.473 456.512 323.305 454.044 328.456L484.419 342.863C485.283 341.058 486.445 339.361 487.947 337.867Z" fill="#58D8D2"/>
<path d="M487.616 363.796C486.157 362.345 485.019 360.702 484.161 358.957L453.932 373.646C456.38 378.633 459.672 383.312 463.837 387.457C468.124 391.722 472.98 395.073 478.159 397.528L492.637 367.306C490.824 366.447 489.117 365.29 487.616 363.796Z" fill="#58D8D2"/>
<path d="M514.006 338.196C515.465 339.647 516.604 341.29 517.462 343.034L547.69 328.345C545.244 323.359 541.95 318.679 537.786 314.536C533.498 310.269 528.642 306.919 523.465 304.462L508.985 334.686C510.798 335.546 512.505 336.702 514.006 338.196Z" fill="#58D8D2"/>
<path d="M501.044 332.662C503.107 332.662 505.08 333.021 506.928 333.653L517.863 301.998C512.588 300.194 506.935 299.2 501.044 299.2C494.982 299.2 489.167 300.248 483.759 302.154L495 333.711C496.894 333.044 498.922 332.662 501.044 332.662Z" fill="#58D8D2"/>
<path d="M500.578 369.331C498.515 369.331 496.542 368.971 494.695 368.34L483.759 399.994C489.034 401.799 494.687 402.791 500.578 402.791C506.641 402.791 512.457 401.744 517.863 399.837L506.622 368.28C504.729 368.947 502.701 369.331 500.578 369.331Z" fill="#58D8D2"/>
<path d="M549.9 334.03L518.182 345.215C518.854 347.098 519.238 349.116 519.238 351.228C519.238 353.281 518.877 355.244 518.242 357.081L550.057 367.961C551.87 362.714 552.869 357.088 552.869 351.228C552.869 345.195 551.816 339.409 549.9 334.03Z" fill="#FDFEFE"/>
<path d="M482.384 350.763C482.384 348.712 482.745 346.748 483.38 344.91L451.565 334.03C449.752 339.278 448.755 344.903 448.755 350.763C448.755 356.796 449.807 362.582 451.724 367.961L483.44 356.778C482.768 354.894 482.384 352.876 482.384 350.763Z" fill="#58D8D2"/>
<path d="M513.676 364.124C512.217 365.575 510.566 366.709 508.812 367.562L523.576 397.64C528.588 395.204 533.29 391.929 537.456 387.784C541.744 383.519 545.11 378.688 547.58 373.535L517.204 359.129C516.34 360.933 515.177 362.63 513.676 364.124Z" fill="#FDFEFE"/>
<path d="M487.947 337.867C489.405 336.416 491.056 335.281 492.811 334.428L478.047 304.351C473.035 306.787 468.332 310.063 464.167 314.206C459.879 318.473 456.512 323.305 454.044 328.456L484.419 342.863C485.283 341.058 486.445 339.361 487.947 337.867Z" fill="#58D8D2"/>
<path d="M487.616 363.796C486.157 362.345 485.019 360.702 484.161 358.957L453.932 373.646C456.38 378.633 459.672 383.312 463.837 387.457C468.124 391.722 472.98 395.073 478.159 397.528L492.637 367.306C490.824 366.447 489.117 365.29 487.616 363.796Z" fill="#58D8D2"/>
<path d="M514.006 338.196C515.465 339.647 516.604 341.29 517.462 343.034L547.69 328.345C545.244 323.359 541.95 318.679 537.786 314.536C533.498 310.269 528.642 306.919 523.465 304.462L508.985 334.686C510.798 335.546 512.505 336.702 514.006 338.196Z" fill="#58D8D2"/>
<path d="M537.787 314.536C536.671 313.425 535.515 312.381 534.327 311.394C535.648 316.864 535.121 323.026 531.608 327.416C527.303 332.794 519.676 334.369 514.105 338.304C515.515 339.728 516.625 341.331 517.463 343.034L547.691 328.345C545.244 323.359 541.951 318.679 537.787 314.536Z" fill="#FDFEFE"/>
<path d="M517.863 399.837L506.622 368.28C506.415 368.354 506.201 368.41 505.99 368.475C505.725 370.161 505.337 371.81 504.722 373.388C502.206 379.817 496.279 384.452 489.838 387.012C489.238 387.251 488.627 387.459 488.018 387.669L483.759 399.995C489.034 401.799 494.687 402.791 500.578 402.791C506.641 402.791 512.457 401.743 517.863 399.837Z" fill="#FDFEFE"/>
<path d="M482.108 389.283C477.969 390.156 473.72 390.621 469.507 391.072C469.031 391.122 468.555 391.172 468.079 391.223C471.237 393.743 474.62 395.85 478.159 397.528L482.108 389.283Z" fill="#FDFEFE"/>
<path d="M511.417 340.623C511.146 340.909 510.874 341.196 510.623 341.506C505.681 347.639 506.834 356.098 506.421 364.162C511.735 361.971 515.477 356.763 515.477 350.683C515.477 346.78 513.926 343.243 511.417 340.623Z" fill="#FDFEFE"/>
<path d="M559.604 275.632C559.604 275.632 555.465 271.852 547.292 265.789H518.799C518.799 275.303 526.548 283.013 536.109 283.013H563.651L559.604 275.632Z" fill="#FDFEFE"/>
<path d="M428.296 350.683C428.296 310.834 460.762 278.531 500.812 278.531" stroke="#FDFEFE" stroke-width="1.33333" stroke-miterlimit="10"/>
<path d="M315.622 296.699C315.622 292.972 312.586 289.951 308.841 289.951H266.52C262.125 289.951 258.562 293.496 258.562 297.869V300.018V303.212V333.977H303.632L296.454 316.404C294.894 312.585 296.473 308.209 300.118 306.248L315.622 297.906V296.699Z" fill="#20BCBC"/>
<path d="M407.853 199.455C363.282 186.541 309.098 177.206 245.522 177.206C212.174 177.206 181.38 183.389 154.406 192.198L164.992 199.546C189.337 192.51 216.464 187.819 245.522 187.819C306.865 187.819 359.48 196.504 403.137 208.716L407.853 199.455Z" fill="#58D8D2"/>
<path d="M25.3346 414.673H14.668H1.33331" stroke="#25496D" stroke-width="2.66667" stroke-miterlimit="10" stroke-linecap="round"/>
<path d="M548.001 414.673H417.335H397.335H376.001H352.001H53.3346" stroke="#25496D" stroke-width="2.66667" stroke-miterlimit="10" stroke-linecap="round"/>
<path d="M621.337 414.673H572.001" stroke="#25496D" stroke-width="2.66667" stroke-miterlimit="10" stroke-linecap="round"/>
<path d="M308.841 289.951H266.52C263.159 289.951 260.291 292.026 259.124 294.958H315.367C314.591 292.081 311.979 289.951 308.841 289.951Z" fill="#91DEDD"/>
<path d="M304.068 335.342H258.344C257.562 335.342 256.93 334.712 256.93 333.934C256.93 333.158 257.562 332.53 258.344 332.53H304.068C304.848 332.53 305.481 333.158 305.481 333.934C305.481 334.712 304.848 335.342 304.068 335.342Z" fill="#91DEDD"/>
<path d="M304.03 283.15L266.427 288.37L262.257 254.914L301.161 260.131L304.03 283.15Z" fill="#20BCBC"/>
<path d="M263.793 256.458L299.964 261.309L302.545 282.017L267.584 286.868L263.793 256.458Z" fill="#25496D"/>
<path d="M295.4 277.848C292.424 277.848 289.958 275.595 289.733 272.611L289.145 264.873C289.09 264.147 288.552 263.542 287.836 263.399C287.324 263.298 286.802 263.44 286.413 263.791C286.025 264.144 285.833 264.644 285.888 265.165L286.737 273.189H281.422L281.4 272.882C281.257 270.884 279.632 269.29 277.621 269.175L271.624 268.834L269.953 256.085L270.614 255.999L272.213 268.203L277.658 268.513C279.9 268.642 281.729 270.342 282.033 272.526H285.997L285.225 265.235C285.148 264.501 285.417 263.797 285.964 263.302C286.51 262.806 287.242 262.605 287.966 262.749C288.974 262.95 289.733 263.802 289.81 264.824L290.398 272.561C290.604 275.272 292.902 277.326 295.632 277.18L302.709 276.867L302.738 277.53L295.662 277.843C295.574 277.847 295.486 277.848 295.4 277.848Z" fill="#91DEDD"/>
<path d="M287.126 284.548L286.604 277.823L265.67 279.158L265.627 278.496L287.219 277.117L287.79 284.496L287.126 284.548Z" fill="#91DEDD"/>
<path d="M301.594 271.56L294.514 270.715L293.396 260.146L294.059 260.075L295.122 270.119L301.674 270.902L301.594 271.56Z" fill="#91DEDD"/>
<path d="M271.466 274.275H265.103V273.612H270.735L270.521 271.255L264.515 270.476L264.602 269.818L271.135 270.664L271.466 274.275Z" fill="#91DEDD"/>
<path d="M144.761 325.048C136.369 340.928 141.85 362.983 129.216 375.784C113.909 391.295 84.5744 380.593 67.8344 394.561C66.7144 395.496 65.7184 396.517 64.8171 397.596C76.2424 408.077 91.4984 414.486 108.265 414.486C143.681 414.486 172.392 385.919 172.392 350.681C172.392 335.652 167.156 321.847 158.418 310.943C152.922 313.993 148.169 318.601 144.761 325.048Z" fill="#FDFEFE"/>
<path d="M59.8665 392.512C71.6238 405.968 88.9385 414.485 108.265 414.485C127.591 414.485 144.907 405.968 156.664 392.512H59.8665Z" fill="#25496D"/>
<path d="M108.265 286.878C143.681 286.878 172.392 315.444 172.392 350.683" stroke="#25496D" stroke-width="1.33333" stroke-miterlimit="10"/>
<path d="M65.3347 250.171H122.668" stroke="#FDFEFE" stroke-width="1.33333" stroke-miterlimit="10"/>
<path d="M201.335 362.935H409.335" stroke="#25496D" stroke-width="1.33333" stroke-miterlimit="10"/>
<path d="M191.451 312.756H234.514C237.317 312.756 239.589 310.496 239.589 307.708V301.701C239.589 298.642 236.875 296.287 233.83 296.698L190.766 302.706C188.253 303.047 186.378 305.183 186.378 307.708C186.378 310.496 188.649 312.756 191.451 312.756Z" fill="#20BCBC"/>
<path d="M203.182 282.775C205.024 283.081 235.529 284.105 248.596 284.532C252.069 284.646 255.033 287.045 255.862 290.402L265.838 331.72L279.176 333.548L279.148 335.614L261.228 336.004C261.228 336.004 248.98 294.07 247.022 294.459C245.065 294.849 203.182 299.522 203.182 298.353V282.775Z" fill="#0A2B47"/>
<path d="M196.758 234.025L195.747 233.193C195.03 232.601 194.529 231.783 194.369 230.869C193.702 227.051 191.459 223.532 187.857 221.383C181.262 217.447 172.709 219.576 168.754 226.138C164.799 232.699 174.658 247.556 184.642 246.534C186.645 246.707 188.714 246.706 190.481 246.641C193.067 246.548 195.066 244.362 194.922 241.79L194.609 236.236L196.473 235.593C197.15 235.359 197.31 234.48 196.758 234.025Z" fill="#E5B5BA"/>
<path d="M303.38 326.398L288.104 331.687L253.083 292.965C251.602 291.652 249.714 290.892 247.731 290.817C238.647 290.475 208.4 289.475 207.388 289.306L198.406 301.698C198.406 301.698 200.243 303.526 200.855 303.931C201.467 304.338 246.503 301.495 246.503 301.495L287.118 337.068L304.9 328.817L303.38 326.398Z" fill="#25496D"/>
<path d="M168.754 226.138C168.629 226.345 168.526 226.571 168.418 226.791C166.362 231.498 170.241 239.533 176.006 243.773C176.891 243.587 178.183 243.224 179.405 240.185C177.277 239.824 175.205 238.23 175.009 236.091C174.811 233.952 177.273 231.837 179.182 232.839C178.99 231.047 177.777 229.399 176.117 228.676C180.589 229.712 185.482 228.108 188.697 224.907C189.258 224.347 189.806 223.782 190.21 223.196C189.885 222.891 189.543 222.599 189.19 222.317C188.763 221.99 188.331 221.666 187.857 221.384C183.323 218.677 177.863 218.838 173.609 221.334C171.675 222.47 169.99 224.089 168.754 226.138Z" fill="#25496D"/>
<path d="M176.007 243.773L178.195 249.291L184.115 253.15L183.299 243.196L176.007 243.773Z" fill="#E5B5BA"/>
<path d="M191.339 226.698C191.339 226.698 188.647 226.146 187.222 229.928" stroke="#0E3554" stroke-width="0.666667" stroke-miterlimit="10"/>
<path d="M194.903 241.472L194.711 238.068L188.335 238.453C188.335 238.453 192.304 240.725 194.903 241.472Z" fill="#FDFEFE"/>
<path d="M192.452 232.053C192.452 232.597 192.008 233.039 191.463 233.039C190.916 233.039 190.472 232.597 190.472 232.053C190.472 231.509 190.916 231.069 191.463 231.069C192.008 231.069 192.452 231.509 192.452 232.053Z" fill="#25496D"/>
<path d="M235.574 248.647L231.696 246.458L215.335 258.793L180.559 250.832L178.194 249.29C178.194 249.29 174.111 252.947 173.703 257.01C173.295 261.072 198.406 301.698 198.406 301.698L213.308 288.901L213.878 284.181L199.268 265.25L211.296 267.325C214.044 267.8 216.854 266.94 218.86 265.014L235.574 248.647Z" fill="#20BCBC"/>
<path d="M239.001 245.03C239.001 247.137 237.285 248.844 235.168 248.844C233.051 248.844 231.335 247.137 231.335 245.03C231.335 242.923 233.051 241.216 235.168 241.216C237.285 241.216 239.001 242.923 239.001 245.03Z" fill="#E5B5BA"/>
<g opacity="0.300003">
<g opacity="0.300003">
<path opacity="0.300003" d="M199.268 265.249L184.785 262.912L207.865 279.731L199.268 265.249Z" fill="#25496D"/>
</g>
</g>
<path d="M182.304 299.193L182.881 298.105C163.265 287.811 156.185 262.689 167.096 242.101L166.001 241.526C154.773 262.715 162.085 288.583 182.304 299.193Z" fill="#20BCBC"/>
<path d="M163.943 233.444C166.297 232.43 169.032 233.508 170.051 235.85L177.025 251.891C178.044 254.235 176.961 256.956 174.607 257.968C172.252 258.982 169.517 257.903 168.499 255.561L161.524 239.521C160.505 237.177 161.588 234.457 163.943 233.444Z" fill="#91DEDD"/>
<path d="M183.952 340.694H236.56L235.117 336.743C233.013 330.984 227.513 327.15 221.355 327.15H199.157C192.999 327.15 187.499 330.984 185.395 336.743L183.952 340.694Z" fill="#58D8D2"/>
<path d="M236.56 313.607H183.952L185.395 317.557C187.499 323.315 192.999 327.15 199.157 327.15H221.355C227.513 327.15 233.013 323.315 235.117 317.557L236.56 313.607Z" fill="#20BCBC"/>
<path d="M188.679 314.924L197.939 311.557C201.654 310.207 203.198 305.813 201.139 302.454L174.971 259.773C173.415 257.236 170.276 256.142 167.47 257.163C164.219 258.346 162.547 261.925 163.735 265.16L180.642 311.206C181.83 314.441 185.428 316.106 188.679 314.924Z" fill="#91DEDD"/>
<path d="M187.742 315.217H239.462C242.263 315.217 244.535 312.957 244.535 310.168V304.162C244.535 301.103 241.823 298.747 238.776 299.16L187.056 305.167C184.543 305.507 182.667 307.645 182.667 310.168C182.667 312.957 184.939 315.217 187.742 315.217Z" fill="#91DEDD"/>
<path d="M384.393 312.756H341.331C338.529 312.756 336.256 310.496 336.256 307.708V301.701C336.256 298.642 338.969 296.287 342.016 296.698L385.08 302.706C387.592 303.047 389.468 305.183 389.468 307.708C389.468 310.496 387.196 312.756 384.393 312.756Z" fill="#20BCBC"/>
<path d="M386.036 222.985C385.651 224.115 385.824 225.364 386.183 226.503C386.543 227.641 387.079 228.719 387.438 229.858C388.175 232.206 388.119 234.743 387.668 237.163C387.338 238.938 386.742 240.766 385.4 241.984C384.278 243.003 382.772 243.47 381.447 244.21C380.12 244.95 378.863 246.196 378.922 247.707C378.987 249.358 380.551 250.513 382.01 251.301C383.47 252.087 385.126 252.918 385.666 254.481C385.722 254.64 385.772 254.816 385.91 254.913C386.018 254.989 386.158 254.998 386.288 255.006C389.824 255.184 393.404 255.015 396.824 254.108C398.034 253.787 399.24 253.362 400.236 252.609C401.118 251.943 401.795 251.046 402.363 250.101C403.324 248.501 404.004 246.697 404.059 244.833C404.167 241.182 401.924 237.858 401.475 234.232C401.323 233 401.382 231.749 401.242 230.514C400.995 228.317 400.096 226.177 398.6 224.542C397.104 222.908 395 221.806 392.786 221.632C391.964 221.567 391.282 221.531 390.638 220.968C390.127 220.523 389.776 220.053 389.042 220.244C387.767 220.576 386.454 221.755 386.036 222.985Z" fill="#0E3554"/>
<path d="M372.663 282.775C370.82 283.081 340.316 284.105 327.249 284.532C323.777 284.646 320.812 287.045 319.983 290.402L310.007 331.72L296.669 333.548L296.697 335.614L314.617 336.004C314.617 336.004 326.865 294.07 328.823 294.459C330.78 294.849 372.663 299.522 372.663 298.353V282.775Z" fill="#0A2B47"/>
<path d="M379.087 234.025L380.098 233.193C380.817 232.601 381.317 231.783 381.477 230.869C382.143 227.051 384.386 223.532 387.989 221.383C394.583 217.447 403.135 219.576 407.091 226.138C411.047 232.699 401.187 247.556 391.203 246.534C389.201 246.707 387.131 246.706 385.363 246.641C382.778 246.548 380.779 244.362 380.925 241.79L381.237 236.236L379.373 235.593C378.695 235.359 378.535 234.48 379.087 234.025Z" fill="#E5B5BA"/>
<path d="M399.838 243.773L397.65 249.291L391.73 253.15L392.546 243.196L399.838 243.773Z" fill="#E5B5BA"/>
<path d="M384.346 227.281C384.346 227.281 387.038 226.729 388.464 230.511" stroke="#0E3554" stroke-width="0.666667" stroke-miterlimit="10"/>
<path d="M316.505 314.275L310.439 333.665L297.325 334.469L297.829 337.282H315.687L323.3 317.329L316.505 314.275Z" fill="#E5B5BA"/>
<path d="M383.393 232.053C383.393 232.597 383.836 233.039 384.383 233.039C384.929 233.039 385.372 232.597 385.372 232.053C385.372 231.509 384.929 231.069 384.383 231.069C383.836 231.069 383.393 231.509 383.393 232.053Z" fill="#0E3554"/>
<path d="M316.505 314.275L323.3 317.329L329.342 301.494C329.342 301.494 374.377 304.339 374.989 303.931C375.602 303.525 377.44 301.699 377.44 301.699L368.457 289.307C367.649 289.441 339.718 290.495 328.426 290.918C325.625 291.023 323.201 292.873 322.368 295.536L316.505 314.275Z" fill="#25496D"/>
<path d="M392.053 251.701L397.651 249.291C397.651 249.291 401.735 252.946 402.141 257.01C402.551 261.072 377.44 301.699 377.44 301.699L362.536 288.901L374.177 275.955L377.101 268.033L377.059 266.042C376.984 262.676 378.741 259.533 381.653 257.819L392.053 251.701Z" fill="#58D8D2"/>
<path d="M406.539 259.864C404.888 264.63 400.987 267.891 398.762 272.422C397.182 271.615 396.15 269.853 396.222 268.09C396.243 267.553 396.358 267.001 396.2 266.485C395.855 265.356 394.475 264.994 393.462 264.377C391.926 263.443 391.048 261.541 391.34 259.772C391.799 256.974 394.683 255.225 395.802 252.618C396.59 250.784 396.398 248.566 395.308 246.895C394.632 245.856 393.612 244.958 393.432 243.735C393.175 241.994 394.915 240.145 396.295 239.045C397.343 239.349 398.522 238.862 399.2 238.01C399.879 237.161 400.102 236.015 399.994 234.934C399.858 233.561 399.104 232.148 397.804 231.669C396.504 231.189 394.402 231.965 394.399 233.346C390.274 230.263 387.806 225.103 388 219.975C389.824 219.7 391.186 218.808 392.978 218.371C396.714 217.458 400.824 218.19 404.008 220.338C407.192 222.486 409.4 226.012 409.932 229.802C410.432 233.36 409.518 236.949 408.612 240.427C408.142 242.231 407.58 244.02 408.587 245.592C409.594 247.165 410.971 248.606 411.287 250.443C411.678 252.733 410.314 254.917 409.011 256.842C408.43 257.7 406.879 258.886 406.539 259.864Z" fill="#25496D"/>
<path d="M353.892 271.807L348.035 277.635L335.736 265.397L341.592 259.569L353.892 271.807Z" fill="#0A2B47"/>
<g opacity="0.300003">
<g opacity="0.300003">
<path opacity="0.300003" d="M379.953 280.907L398.196 260.818L390.024 254.685L375.969 271.099L374.177 275.956L368.714 282.03L379.953 280.907Z" fill="#25496D"/>
</g>
</g>
<path d="M362.842 270.443L344.436 270.781L344.11 274.824L362.128 276.141L362.842 270.443Z" fill="#E5B5BA"/>
<path d="M391.73 253.15L370.925 270.296L362.842 270.443L362.128 276.141L377.264 277.249L398.716 260.593L391.73 253.15Z" fill="#58D8D2"/>
<path d="M346.548 272.56C346.548 274.614 344.875 276.279 342.811 276.279C340.746 276.279 339.074 274.614 339.074 272.56C339.074 270.505 340.746 268.84 342.811 268.84C344.875 268.84 346.548 270.505 346.548 272.56Z" fill="#E5B5BA"/>
<path d="M386.16 237.337L381.099 238.689L380.947 241.398C381.672 241.66 382.476 241.724 383.281 241.51C385.171 241.005 386.355 239.213 386.16 237.337Z" fill="#FDFEFE"/>
<path d="M315.686 337.281H297.829L297.325 334.469L310.438 333.665L315.686 337.281Z" fill="#25496D"/>
<path d="M393.54 299.193L392.963 298.105C412.579 287.811 419.66 262.689 408.748 242.101L409.843 241.526C421.071 262.715 413.759 288.583 393.54 299.193Z" fill="#20BCBC"/>
<path d="M411.902 233.444C409.546 232.43 406.813 233.508 405.794 235.85L398.82 251.891C397.802 254.235 398.884 256.956 401.24 257.968C403.594 258.982 406.328 257.903 407.346 255.561L414.32 239.521C415.34 237.177 414.257 234.457 411.902 233.444Z" fill="#91DEDD"/>
<path d="M391.893 340.694H339.285L340.728 336.743C342.83 330.984 348.332 327.15 354.49 327.15H376.688C382.846 327.15 388.346 330.984 390.45 336.743L391.893 340.694Z" fill="#58D8D2"/>
<path d="M339.285 313.607H391.893L390.45 317.557C388.346 323.315 382.846 327.15 376.688 327.15H354.49C348.332 327.15 342.83 323.315 340.728 317.557L339.285 313.607Z" fill="#20BCBC"/>
<path d="M387.165 314.924L377.907 311.557C374.192 310.207 372.647 305.813 374.707 302.454L400.873 259.773C402.429 257.236 405.569 256.142 408.375 257.163C411.627 258.346 413.299 261.925 412.111 265.16L395.203 311.206C394.016 314.441 390.416 316.106 387.165 314.924Z" fill="#91DEDD"/>
<path d="M388.104 315.217H336.384C333.581 315.217 331.309 312.957 331.309 310.168V304.162C331.309 301.103 334.023 298.747 337.069 299.16L388.789 305.167C391.303 305.507 393.177 307.645 393.177 310.168C393.177 312.957 390.907 315.217 388.104 315.217Z" fill="#91DEDD"/>
<path d="M571.641 300.678C573.203 285.323 570.141 269.643 562.525 255.752" stroke="#FDFEFE" stroke-width="1.33333" stroke-miterlimit="10"/>
<path d="M569.849 55.7492C568.957 50.5024 564.754 46.5278 559.694 46.5278C558.857 46.5278 558.045 46.6485 557.265 46.8541C555.47 37.1525 547.624 29.8493 538.216 29.8493C530.614 29.8493 524.037 34.6199 520.842 41.5688C519.709 41.2942 518.533 41.1443 517.322 41.1443C512.13 41.1443 507.512 43.8241 504.554 47.9831C503.057 47.0598 501.33 46.5278 499.489 46.5278C494.43 46.5278 490.226 50.5024 489.334 55.7492H569.849Z" fill="white"/>
<path d="M174.907 133.675H31.5349C36.0762 128.223 44.4322 125.173 50.5216 128.84C51.0376 126.364 53.7922 124.873 56.3322 124.908C58.8736 124.942 60.7976 126.067 63.0589 127.22C66.4096 119.679 77.3896 116.85 83.9989 121.823C86.0242 118.442 89.7642 116.137 93.7096 115.84C97.6549 115.543 102.822 117.12 105.335 120.16C110.23 113.05 119.491 109.2 128.015 110.734C136.539 112.268 143.859 119.101 145.94 127.467C157.628 125.57 164.24 128.556 174.907 133.675Z" fill="white"/>
<path d="M152.001 55.9739C151.251 54.0914 150.908 52.002 149.104 51.0641C147.795 50.3835 146.237 50.418 144.764 50.5374C141.031 50.8425 139.455 51.4766 135.899 52.6481C134.18 49.4296 131.463 46.7485 128.213 45.0677C125.712 43.7729 122.104 43.3338 120.527 45.6593C116.2 43.3258 111.152 42.3441 106.261 42.8814C103.903 43.1414 101.017 44.476 101.244 46.8255C101.127 46.7551 101.003 46.6941 100.884 46.6265C98.912 37.0628 91.104 29.9148 81.756 29.9148C74.0826 29.9148 67.4426 34.7305 64.2173 41.7458C63.072 41.4685 61.8853 41.3173 60.664 41.3173C55.4213 41.3173 50.7586 44.0223 47.7733 48.2198C46.2613 47.2885 44.52 46.7512 42.66 46.7512C37.552 46.7512 33.308 50.7642 32.408 56.0615H113.691C113.685 56.031 113.673 56.0031 113.668 55.9739H152.001Z" fill="white"/>
<path d="M622.296 152.921V153.338H622.881C622.689 153.192 622.49 153.061 622.296 152.921Z" fill="white"/>
<path d="M578.579 127.847C572.499 118.115 560.135 112.647 548.807 114.811C546.163 105.516 533.113 101.114 525.334 106.895C521.541 103.658 516.293 101.753 511.458 103.008C509.023 103.639 506.858 105.007 504.737 106.355C498.994 110.007 492.931 114.024 490.263 120.264C484.587 117.051 476.406 119.655 473.661 125.551C468.593 122.159 461.063 123.297 457.087 127.847H578.579Z" fill="white"/>
<g filter="url(#filter0_d)">
<path d="M167 205.915V194.02V144.286C167 143.73 167.454 143.281 168.01 143.286L268.01 144.262C268.558 144.267 269 144.713 269 145.262V193.02C269 193.573 268.552 194.02 268 194.02H180.934C180.657 194.02 180.393 194.135 180.204 194.337L168.73 206.599C168.11 207.261 167 206.822 167 205.915Z" fill="white"/>
</g>
<g filter="url(#filter1_d)">
<path d="M389 205.915V194.02V144.286C389 143.73 388.546 143.281 387.99 143.286L287.99 144.262C287.442 144.267 287 144.713 287 145.262V193.02C287 193.573 287.448 194.02 288 194.02H375.066C375.343 194.02 375.607 194.135 375.796 194.337L387.27 206.599C387.89 207.261 389 206.822 389 205.915Z" fill="white"/>
</g>
<path d="M177.794 163.236V156.438H175.044V155.481H181.677V156.438H178.927V163.236H177.794ZM182.506 163.236V155.481H183.617V158.704C183.8 158.396 184.046 158.165 184.354 158.011C184.669 157.85 185.021 157.769 185.41 157.769C186.678 157.769 187.313 158.488 187.313 159.925V163.236H186.202V159.991C186.202 159.529 186.11 159.192 185.927 158.979C185.751 158.767 185.472 158.66 185.091 158.66C184.643 158.66 184.284 158.803 184.013 159.089C183.749 159.368 183.617 159.738 183.617 160.2V163.236H182.506ZM188.745 156.625V155.47H190.043V156.625H188.745ZM188.844 163.236V157.868H189.955V163.236H188.844ZM193.399 163.335C192.959 163.335 192.549 163.28 192.167 163.17C191.786 163.053 191.467 162.892 191.21 162.686L191.529 161.938C191.801 162.129 192.098 162.276 192.42 162.378C192.75 162.481 193.08 162.532 193.41 162.532C193.799 162.532 194.092 162.463 194.29 162.323C194.488 162.184 194.587 161.997 194.587 161.762C194.587 161.572 194.521 161.425 194.389 161.322C194.257 161.212 194.059 161.128 193.795 161.069L192.75 160.86C191.826 160.67 191.364 160.193 191.364 159.43C191.364 158.924 191.566 158.521 191.969 158.22C192.373 157.92 192.901 157.769 193.553 157.769C193.927 157.769 194.283 157.824 194.62 157.934C194.965 158.044 195.251 158.209 195.478 158.429L195.159 159.177C194.939 158.987 194.686 158.84 194.4 158.737C194.114 158.635 193.832 158.583 193.553 158.583C193.172 158.583 192.882 158.657 192.684 158.803C192.486 158.943 192.387 159.133 192.387 159.375C192.387 159.742 192.629 159.977 193.113 160.079L194.158 160.288C194.635 160.384 194.994 160.545 195.236 160.772C195.486 161 195.61 161.308 195.61 161.696C195.61 162.21 195.409 162.613 195.005 162.906C194.602 163.192 194.067 163.335 193.399 163.335ZM202.101 163.335C201.551 163.335 201.074 163.222 200.671 162.994C200.275 162.76 199.967 162.433 199.747 162.015C199.527 161.59 199.417 161.091 199.417 160.519C199.417 159.669 199.659 158.998 200.143 158.506C200.627 158.015 201.28 157.769 202.101 157.769C202.438 157.769 202.772 157.828 203.102 157.945C203.432 158.063 203.703 158.224 203.916 158.429L203.564 159.21C203.359 159.02 203.131 158.88 202.882 158.792C202.64 158.697 202.409 158.649 202.189 158.649C201.668 158.649 201.265 158.814 200.979 159.144C200.7 159.467 200.561 159.929 200.561 160.53C200.561 161.132 200.7 161.605 200.979 161.949C201.265 162.287 201.668 162.455 202.189 162.455C202.409 162.455 202.64 162.411 202.882 162.323C203.131 162.228 203.359 162.085 203.564 161.894L203.916 162.686C203.703 162.884 203.428 163.042 203.091 163.159C202.761 163.277 202.431 163.335 202.101 163.335ZM206.544 163.335C206.17 163.335 205.836 163.262 205.543 163.115C205.25 162.969 205.015 162.771 204.839 162.521C204.67 162.272 204.586 161.99 204.586 161.674C204.586 161.278 204.685 160.967 204.883 160.739C205.088 160.512 205.422 160.347 205.884 160.244C206.353 160.142 206.984 160.09 207.776 160.09H208.15V159.804C208.15 159.386 208.062 159.086 207.886 158.902C207.71 158.719 207.42 158.627 207.017 158.627C206.709 158.627 206.401 158.675 206.093 158.77C205.785 158.858 205.47 159.001 205.147 159.199L204.806 158.418C205.085 158.22 205.433 158.063 205.851 157.945C206.269 157.828 206.669 157.769 207.05 157.769C207.783 157.769 208.326 157.945 208.678 158.297C209.03 158.642 209.206 159.185 209.206 159.925V163.236H208.161V162.345C208.029 162.653 207.824 162.895 207.545 163.071C207.266 163.247 206.933 163.335 206.544 163.335ZM206.764 162.543C207.16 162.543 207.49 162.404 207.754 162.125C208.018 161.847 208.15 161.495 208.15 161.069V160.772H207.787C207.252 160.772 206.83 160.798 206.522 160.849C206.221 160.901 206.005 160.989 205.873 161.113C205.748 161.231 205.686 161.396 205.686 161.608C205.686 161.887 205.781 162.114 205.972 162.29C206.163 162.459 206.427 162.543 206.764 162.543ZM210.736 163.236V157.868H211.814V158.825C212.093 158.187 212.672 157.832 213.552 157.758L213.915 157.736L213.992 158.682L213.321 158.748C212.346 158.844 211.858 159.346 211.858 160.255V163.236H210.736ZM217.751 163.236V157.868H218.829V158.737C218.991 158.429 219.214 158.191 219.5 158.022C219.786 157.854 220.12 157.769 220.501 157.769C221.323 157.769 221.854 158.129 222.096 158.847C222.265 158.51 222.507 158.246 222.822 158.055C223.138 157.865 223.497 157.769 223.9 157.769C225.103 157.769 225.704 158.488 225.704 159.925V163.236H224.593V159.98C224.593 159.526 224.513 159.192 224.351 158.979C224.197 158.767 223.941 158.66 223.581 158.66C223.178 158.66 222.859 158.803 222.624 159.089C222.39 159.368 222.272 159.749 222.272 160.233V163.236H221.161V159.98C221.161 159.526 221.084 159.192 220.93 158.979C220.776 158.767 220.52 158.66 220.16 158.66C219.757 158.66 219.438 158.803 219.203 159.089C218.976 159.368 218.862 159.749 218.862 160.233V163.236H217.751ZM229.59 163.335C229.047 163.335 228.578 163.222 228.182 162.994C227.786 162.767 227.478 162.448 227.258 162.037C227.045 161.619 226.939 161.124 226.939 160.552C226.939 159.98 227.045 159.489 227.258 159.078C227.478 158.66 227.786 158.338 228.182 158.11C228.578 157.883 229.047 157.769 229.59 157.769C230.118 157.769 230.58 157.883 230.976 158.11C231.372 158.338 231.68 158.66 231.9 159.078C232.12 159.489 232.23 159.98 232.23 160.552C232.23 161.124 232.12 161.619 231.9 162.037C231.68 162.448 231.372 162.767 230.976 162.994C230.58 163.222 230.118 163.335 229.59 163.335ZM229.59 162.477C230.044 162.477 230.411 162.312 230.69 161.982C230.968 161.652 231.108 161.176 231.108 160.552C231.108 159.929 230.968 159.456 230.69 159.133C230.411 158.803 230.044 158.638 229.59 158.638C229.128 158.638 228.757 158.803 228.479 159.133C228.2 159.456 228.061 159.929 228.061 160.552C228.061 161.176 228.2 161.652 228.479 161.982C228.757 162.312 229.128 162.477 229.59 162.477ZM234.954 163.236L232.644 157.868H233.843L235.482 161.949L237.165 157.868H238.298L235.955 163.236H234.954ZM241.518 163.335C240.638 163.335 239.945 163.09 239.439 162.598C238.933 162.1 238.68 161.421 238.68 160.563C238.68 160.013 238.79 159.529 239.01 159.111C239.237 158.686 239.549 158.356 239.945 158.121C240.341 157.887 240.795 157.769 241.309 157.769C242.049 157.769 242.632 158.008 243.058 158.484C243.483 158.954 243.696 159.603 243.696 160.431V160.805H239.758C239.838 161.92 240.429 162.477 241.529 162.477C241.837 162.477 242.137 162.43 242.431 162.334C242.731 162.239 243.014 162.081 243.278 161.861L243.608 162.631C243.366 162.851 243.054 163.024 242.673 163.148C242.291 163.273 241.906 163.335 241.518 163.335ZM241.353 158.55C240.891 158.55 240.524 158.693 240.253 158.979C239.981 159.265 239.816 159.647 239.758 160.123H242.761C242.739 159.625 242.607 159.24 242.365 158.968C242.123 158.69 241.785 158.55 241.353 158.55ZM246.788 163.335C246.348 163.335 245.937 163.28 245.556 163.17C245.175 163.053 244.856 162.892 244.599 162.686L244.918 161.938C245.189 162.129 245.486 162.276 245.809 162.378C246.139 162.481 246.469 162.532 246.799 162.532C247.188 162.532 247.481 162.463 247.679 162.323C247.877 162.184 247.976 161.997 247.976 161.762C247.976 161.572 247.91 161.425 247.778 161.322C247.646 161.212 247.448 161.128 247.184 161.069L246.139 160.86C245.215 160.67 244.753 160.193 244.753 159.43C244.753 158.924 244.955 158.521 245.358 158.22C245.761 157.92 246.289 157.769 246.942 157.769C247.316 157.769 247.672 157.824 248.009 157.934C248.354 158.044 248.64 158.209 248.867 158.429L248.548 159.177C248.328 158.987 248.075 158.84 247.789 158.737C247.503 158.635 247.221 158.583 246.942 158.583C246.561 158.583 246.271 158.657 246.073 158.803C245.875 158.943 245.776 159.133 245.776 159.375C245.776 159.742 246.018 159.977 246.502 160.079L247.547 160.288C248.024 160.384 248.383 160.545 248.625 160.772C248.874 161 248.999 161.308 248.999 161.696C248.999 162.21 248.797 162.613 248.394 162.906C247.991 163.192 247.455 163.335 246.788 163.335ZM178.113 179.335C177.57 179.335 177.101 179.222 176.705 178.994C176.309 178.767 176.001 178.448 175.781 178.037C175.568 177.619 175.462 177.124 175.462 176.552C175.462 175.98 175.568 175.489 175.781 175.078C176.001 174.66 176.309 174.338 176.705 174.11C177.101 173.883 177.57 173.769 178.113 173.769C178.641 173.769 179.103 173.883 179.499 174.11C179.895 174.338 180.203 174.66 180.423 175.078C180.643 175.489 180.753 175.98 180.753 176.552C180.753 177.124 180.643 177.619 180.423 178.037C180.203 178.448 179.895 178.767 179.499 178.994C179.103 179.222 178.641 179.335 178.113 179.335ZM178.113 178.477C178.568 178.477 178.934 178.312 179.213 177.982C179.492 177.652 179.631 177.176 179.631 176.552C179.631 175.929 179.492 175.456 179.213 175.133C178.934 174.803 178.568 174.638 178.113 174.638C177.651 174.638 177.281 174.803 177.002 175.133C176.723 175.456 176.584 175.929 176.584 176.552C176.584 177.176 176.723 177.652 177.002 177.982C177.281 178.312 177.651 178.477 178.113 178.477ZM182.001 179.236V173.868H183.079V174.759C183.262 174.437 183.511 174.191 183.827 174.022C184.149 173.854 184.509 173.769 184.905 173.769C186.173 173.769 186.808 174.488 186.808 175.925V179.236H185.697V175.991C185.697 175.529 185.605 175.192 185.422 174.979C185.246 174.767 184.967 174.66 184.586 174.66C184.138 174.66 183.779 174.803 183.508 175.089C183.244 175.368 183.112 175.738 183.112 176.2V179.236H182.001ZM191.349 179.236V171.481H192.493V178.257H196.332V179.236H191.349ZM199.938 179.335C199.439 179.335 198.955 179.258 198.486 179.104C198.024 178.943 197.639 178.719 197.331 178.433L197.716 177.553C198.39 178.096 199.124 178.367 199.916 178.367C200.422 178.367 200.818 178.232 201.104 177.96C201.39 177.682 201.533 177.319 201.533 176.871C201.533 176.409 201.397 176.032 201.126 175.738C200.854 175.445 200.477 175.298 199.993 175.298C199.311 175.298 198.764 175.581 198.354 176.145H197.562V171.481H202.182V172.438H198.673V174.891C199.083 174.532 199.604 174.352 200.235 174.352C200.726 174.352 201.151 174.455 201.511 174.66C201.87 174.866 202.149 175.155 202.347 175.529C202.545 175.896 202.644 176.325 202.644 176.816C202.644 177.315 202.534 177.755 202.314 178.136C202.094 178.51 201.782 178.804 201.379 179.016C200.975 179.229 200.495 179.335 199.938 179.335ZM208.499 179.335C208.125 179.335 207.791 179.262 207.498 179.115C207.205 178.969 206.97 178.771 206.794 178.521C206.625 178.272 206.541 177.99 206.541 177.674C206.541 177.278 206.64 176.967 206.838 176.739C207.043 176.512 207.377 176.347 207.839 176.244C208.308 176.142 208.939 176.09 209.731 176.09H210.105V175.804C210.105 175.386 210.017 175.086 209.841 174.902C209.665 174.719 209.375 174.627 208.972 174.627C208.664 174.627 208.356 174.675 208.048 174.77C207.74 174.858 207.425 175.001 207.102 175.199L206.761 174.418C207.04 174.22 207.388 174.063 207.806 173.945C208.224 173.828 208.624 173.769 209.005 173.769C209.738 173.769 210.281 173.945 210.633 174.297C210.985 174.642 211.161 175.185 211.161 175.925V179.236H210.116V178.345C209.984 178.653 209.779 178.895 209.5 179.071C209.221 179.247 208.888 179.335 208.499 179.335ZM208.719 178.543C209.115 178.543 209.445 178.404 209.709 178.125C209.973 177.847 210.105 177.495 210.105 177.069V176.772H209.742C209.207 176.772 208.785 176.798 208.477 176.849C208.176 176.901 207.96 176.989 207.828 177.113C207.703 177.231 207.641 177.396 207.641 177.608C207.641 177.887 207.736 178.114 207.927 178.29C208.118 178.459 208.382 178.543 208.719 178.543ZM214.605 179.335C213.307 179.335 212.658 178.613 212.658 177.168V173.868H213.769V177.179C213.769 177.612 213.857 177.931 214.033 178.136C214.209 178.342 214.488 178.444 214.869 178.444C215.287 178.444 215.624 178.305 215.881 178.026C216.145 177.748 216.277 177.374 216.277 176.904V173.868H217.388V179.236H216.31V178.378C216.134 178.694 215.899 178.932 215.606 179.093C215.313 179.255 214.979 179.335 214.605 179.335ZM221.242 179.335C220.567 179.335 220.065 179.163 219.735 178.818C219.405 178.474 219.24 177.975 219.24 177.322V174.726H218.195V173.868H219.24V172.251H220.351V173.868H222.012V174.726H220.351V177.234C220.351 177.623 220.432 177.916 220.593 178.114C220.762 178.312 221.033 178.411 221.407 178.411C221.524 178.411 221.638 178.4 221.748 178.378C221.858 178.349 221.968 178.316 222.078 178.279L222.254 179.115C222.144 179.181 221.99 179.233 221.792 179.269C221.601 179.313 221.418 179.335 221.242 179.335ZM224.885 179.335C223.587 179.335 222.938 178.613 222.938 177.168V173.868H224.049V177.179C224.049 177.612 224.137 177.931 224.313 178.136C224.489 178.342 224.768 178.444 225.149 178.444C225.567 178.444 225.905 178.305 226.161 178.026C226.425 177.748 226.557 177.374 226.557 176.904V173.868H227.668V179.236H226.59V178.378C226.414 178.694 226.18 178.932 225.886 179.093C225.593 179.255 225.259 179.335 224.885 179.335ZM229.234 179.236V173.868H230.312V174.759C230.495 174.437 230.745 174.191 231.06 174.022C231.383 173.854 231.742 173.769 232.138 173.769C233.407 173.769 234.041 174.488 234.041 175.925V179.236H232.93V175.991C232.93 175.529 232.838 175.192 232.655 174.979C232.479 174.767 232.2 174.66 231.819 174.66C231.372 174.66 231.012 174.803 230.741 175.089C230.477 175.368 230.345 175.738 230.345 176.2V179.236H229.234ZM237.904 179.335C237.361 179.335 236.892 179.222 236.496 178.994C236.1 178.767 235.792 178.448 235.572 178.037C235.359 177.619 235.253 177.124 235.253 176.552C235.253 175.98 235.359 175.489 235.572 175.078C235.792 174.66 236.1 174.338 236.496 174.11C236.892 173.883 237.361 173.769 237.904 173.769C238.432 173.769 238.894 173.883 239.29 174.11C239.686 174.338 239.994 174.66 240.214 175.078C240.434 175.489 240.544 175.98 240.544 176.552C240.544 177.124 240.434 177.619 240.214 178.037C239.994 178.448 239.686 178.767 239.29 178.994C238.894 179.222 238.432 179.335 237.904 179.335ZM237.904 178.477C238.359 178.477 238.725 178.312 239.004 177.982C239.283 177.652 239.422 177.176 239.422 176.552C239.422 175.929 239.283 175.456 239.004 175.133C238.725 174.803 238.359 174.638 237.904 174.638C237.442 174.638 237.072 174.803 236.793 175.133C236.514 175.456 236.375 175.929 236.375 176.552C236.375 177.176 236.514 177.652 236.793 177.982C237.072 178.312 237.442 178.477 237.904 178.477ZM241.814 179.236V173.868H242.892V174.737C243.053 174.429 243.277 174.191 243.563 174.022C243.849 173.854 244.182 173.769 244.564 173.769C245.385 173.769 245.917 174.129 246.159 174.847C246.327 174.51 246.569 174.246 246.885 174.055C247.2 173.865 247.559 173.769 247.963 173.769C249.165 173.769 249.767 174.488 249.767 175.925V179.236H248.656V175.98C248.656 175.526 248.575 175.192 248.414 174.979C248.26 174.767 248.003 174.66 247.644 174.66C247.24 174.66 246.921 174.803 246.687 175.089C246.452 175.368 246.335 175.749 246.335 176.233V179.236H245.224V175.98C245.224 175.526 245.147 175.192 244.993 174.979C244.839 174.767 244.582 174.66 244.223 174.66C243.819 174.66 243.5 174.803 243.266 175.089C243.038 175.368 242.925 175.749 242.925 176.233V179.236H241.814ZM251.816 181.216L252.773 179.093L250.529 173.868H251.717L253.367 177.949L255.039 173.868H256.183L252.982 181.216H251.816Z" fill="#191919"/>
<path d="M297.794 163.236V156.438H295.044V155.481H301.677V156.438H298.927V163.236H297.794ZM302.506 163.236V155.481H303.617V158.704C303.8 158.396 304.046 158.165 304.354 158.011C304.669 157.85 305.021 157.769 305.41 157.769C306.678 157.769 307.313 158.488 307.313 159.925V163.236H306.202V159.991C306.202 159.529 306.11 159.192 305.927 158.979C305.751 158.767 305.472 158.66 305.091 158.66C304.643 158.66 304.284 158.803 304.013 159.089C303.749 159.368 303.617 159.738 303.617 160.2V163.236H302.506ZM308.745 156.625V155.47H310.043V156.625H308.745ZM308.844 163.236V157.868H309.955V163.236H308.844ZM313.399 163.335C312.959 163.335 312.549 163.28 312.167 163.17C311.786 163.053 311.467 162.892 311.21 162.686L311.529 161.938C311.801 162.129 312.098 162.276 312.42 162.378C312.75 162.481 313.08 162.532 313.41 162.532C313.799 162.532 314.092 162.463 314.29 162.323C314.488 162.184 314.587 161.997 314.587 161.762C314.587 161.572 314.521 161.425 314.389 161.322C314.257 161.212 314.059 161.128 313.795 161.069L312.75 160.86C311.826 160.67 311.364 160.193 311.364 159.43C311.364 158.924 311.566 158.521 311.969 158.22C312.373 157.92 312.901 157.769 313.553 157.769C313.927 157.769 314.283 157.824 314.62 157.934C314.965 158.044 315.251 158.209 315.478 158.429L315.159 159.177C314.939 158.987 314.686 158.84 314.4 158.737C314.114 158.635 313.832 158.583 313.553 158.583C313.172 158.583 312.882 158.657 312.684 158.803C312.486 158.943 312.387 159.133 312.387 159.375C312.387 159.742 312.629 159.977 313.113 160.079L314.158 160.288C314.635 160.384 314.994 160.545 315.236 160.772C315.486 161 315.61 161.308 315.61 161.696C315.61 162.21 315.409 162.613 315.005 162.906C314.602 163.192 314.067 163.335 313.399 163.335ZM319.758 163.236V157.868H320.836V158.737C320.997 158.429 321.221 158.191 321.507 158.022C321.793 157.854 322.127 157.769 322.508 157.769C323.329 157.769 323.861 158.129 324.103 158.847C324.272 158.51 324.514 158.246 324.829 158.055C325.144 157.865 325.504 157.769 325.907 157.769C327.11 157.769 327.711 158.488 327.711 159.925V163.236H326.6V159.98C326.6 159.526 326.519 159.192 326.358 158.979C326.204 158.767 325.947 158.66 325.588 158.66C325.185 158.66 324.866 158.803 324.631 159.089C324.396 159.368 324.279 159.749 324.279 160.233V163.236H323.168V159.98C323.168 159.526 323.091 159.192 322.937 158.979C322.783 158.767 322.526 158.66 322.167 158.66C321.764 158.66 321.445 158.803 321.21 159.089C320.983 159.368 320.869 159.749 320.869 160.233V163.236H319.758ZM330.98 163.335C330.606 163.335 330.273 163.262 329.979 163.115C329.686 162.969 329.451 162.771 329.275 162.521C329.107 162.272 329.022 161.99 329.022 161.674C329.022 161.278 329.121 160.967 329.319 160.739C329.525 160.512 329.858 160.347 330.32 160.244C330.79 160.142 331.42 160.09 332.212 160.09H332.586V159.804C332.586 159.386 332.498 159.086 332.322 158.902C332.146 158.719 331.857 158.627 331.453 158.627C331.145 158.627 330.837 158.675 330.529 158.77C330.221 158.858 329.906 159.001 329.583 159.199L329.242 158.418C329.521 158.22 329.869 158.063 330.287 157.945C330.705 157.828 331.105 157.769 331.486 157.769C332.22 157.769 332.762 157.945 333.114 158.297C333.466 158.642 333.642 159.185 333.642 159.925V163.236H332.597V162.345C332.465 162.653 332.26 162.895 331.981 163.071C331.703 163.247 331.369 163.335 330.98 163.335ZM331.2 162.543C331.596 162.543 331.926 162.404 332.19 162.125C332.454 161.847 332.586 161.495 332.586 161.069V160.772H332.223C331.688 160.772 331.266 160.798 330.958 160.849C330.658 160.901 330.441 160.989 330.309 161.113C330.185 161.231 330.122 161.396 330.122 161.608C330.122 161.887 330.218 162.114 330.408 162.29C330.599 162.459 330.863 162.543 331.2 162.543ZM335.173 163.236V155.481H336.284V160.211H336.306L338.638 157.868H340.013L337.439 160.453L340.211 163.236H338.825L336.306 160.783H336.284V163.236H335.173ZM343.245 163.335C342.365 163.335 341.672 163.09 341.166 162.598C340.66 162.1 340.407 161.421 340.407 160.563C340.407 160.013 340.517 159.529 340.737 159.111C340.965 158.686 341.276 158.356 341.672 158.121C342.068 157.887 342.523 157.769 343.036 157.769C343.777 157.769 344.36 158.008 344.785 158.484C345.211 158.954 345.423 159.603 345.423 160.431V160.805H341.485C341.566 161.92 342.156 162.477 343.256 162.477C343.564 162.477 343.865 162.43 344.158 162.334C344.459 162.239 344.741 162.081 345.005 161.861L345.335 162.631C345.093 162.851 344.782 163.024 344.4 163.148C344.019 163.273 343.634 163.335 343.245 163.335ZM343.08 158.55C342.618 158.55 342.252 158.693 341.98 158.979C341.709 159.265 341.544 159.647 341.485 160.123H344.488C344.466 159.625 344.334 159.24 344.092 158.968C343.85 158.69 343.513 158.55 343.08 158.55ZM348.516 163.335C348.076 163.335 347.665 163.28 347.284 163.17C346.902 163.053 346.583 162.892 346.327 162.686L346.646 161.938C346.917 162.129 347.214 162.276 347.537 162.378C347.867 162.481 348.197 162.532 348.527 162.532C348.915 162.532 349.209 162.463 349.407 162.323C349.605 162.184 349.704 161.997 349.704 161.762C349.704 161.572 349.638 161.425 349.506 161.322C349.374 161.212 349.176 161.128 348.912 161.069L347.867 160.86C346.943 160.67 346.481 160.193 346.481 159.43C346.481 158.924 346.682 158.521 347.086 158.22C347.489 157.92 348.017 157.769 348.67 157.769C349.044 157.769 349.399 157.824 349.737 157.934C350.081 158.044 350.367 158.209 350.595 158.429L350.276 159.177C350.056 158.987 349.803 158.84 349.517 158.737C349.231 158.635 348.948 158.583 348.67 158.583C348.288 158.583 347.999 158.657 347.801 158.803C347.603 158.943 347.504 159.133 347.504 159.375C347.504 159.742 347.746 159.977 348.23 160.079L349.275 160.288C349.751 160.384 350.111 160.545 350.353 160.772C350.602 161 350.727 161.308 350.727 161.696C350.727 162.21 350.525 162.613 350.122 162.906C349.718 163.192 349.183 163.335 348.516 163.335ZM354.874 163.236V157.868H355.952V158.737C356.114 158.429 356.337 158.191 356.623 158.022C356.909 157.854 357.243 157.769 357.624 157.769C358.446 157.769 358.977 158.129 359.219 158.847C359.388 158.51 359.63 158.246 359.945 158.055C360.261 157.865 360.62 157.769 361.023 157.769C362.226 157.769 362.827 158.488 362.827 159.925V163.236H361.716V159.98C361.716 159.526 361.636 159.192 361.474 158.979C361.32 158.767 361.064 158.66 360.704 158.66C360.301 158.66 359.982 158.803 359.747 159.089C359.513 159.368 359.395 159.749 359.395 160.233V163.236H358.284V159.98C358.284 159.526 358.207 159.192 358.053 158.979C357.899 158.767 357.643 158.66 357.283 158.66C356.88 158.66 356.561 158.803 356.326 159.089C356.099 159.368 355.985 159.749 355.985 160.233V163.236H354.874ZM366.9 163.335C366.02 163.335 365.327 163.09 364.821 162.598C364.315 162.1 364.062 161.421 364.062 160.563C364.062 160.013 364.172 159.529 364.392 159.111C364.619 158.686 364.931 158.356 365.327 158.121C365.723 157.887 366.177 157.769 366.691 157.769C367.431 157.769 368.014 158.008 368.44 158.484C368.865 158.954 369.078 159.603 369.078 160.431V160.805H365.14C365.22 161.92 365.811 162.477 366.911 162.477C367.219 162.477 367.519 162.43 367.813 162.334C368.113 162.239 368.396 162.081 368.66 161.861L368.99 162.631C368.748 162.851 368.436 163.024 368.055 163.148C367.673 163.273 367.288 163.335 366.9 163.335ZM366.735 158.55C366.273 158.55 365.906 158.693 365.635 158.979C365.363 159.265 365.198 159.647 365.14 160.123H368.143C368.121 159.625 367.989 159.24 367.747 158.968C367.505 158.69 367.167 158.55 366.735 158.55ZM296.1 179.236V174.726H295.055V173.868H296.1V173.769C296.1 173.029 296.287 172.471 296.661 172.097C297.042 171.723 297.625 171.514 298.41 171.47L298.894 171.437L298.971 172.273L298.465 172.306C298.018 172.336 297.695 172.457 297.497 172.669C297.306 172.882 297.211 173.197 297.211 173.615V173.868H298.718V174.726H297.211V179.236H296.1ZM301.963 179.335C301.083 179.335 300.39 179.09 299.884 178.598C299.378 178.1 299.125 177.421 299.125 176.563C299.125 176.013 299.235 175.529 299.455 175.111C299.682 174.686 299.994 174.356 300.39 174.121C300.786 173.887 301.241 173.769 301.754 173.769C302.495 173.769 303.078 174.008 303.503 174.484C303.928 174.954 304.141 175.603 304.141 176.431V176.805H300.203C300.284 177.92 300.874 178.477 301.974 178.477C302.282 178.477 302.583 178.43 302.876 178.334C303.177 178.239 303.459 178.081 303.723 177.861L304.053 178.631C303.811 178.851 303.499 179.024 303.118 179.148C302.737 179.273 302.352 179.335 301.963 179.335ZM301.798 174.55C301.336 174.55 300.969 174.693 300.698 174.979C300.427 175.265 300.262 175.647 300.203 176.123H303.206C303.184 175.625 303.052 175.24 302.81 174.968C302.568 174.69 302.231 174.55 301.798 174.55ZM307.871 179.335C306.991 179.335 306.298 179.09 305.792 178.598C305.286 178.1 305.033 177.421 305.033 176.563C305.033 176.013 305.143 175.529 305.363 175.111C305.591 174.686 305.902 174.356 306.298 174.121C306.694 173.887 307.149 173.769 307.662 173.769C308.403 173.769 308.986 174.008 309.411 174.484C309.837 174.954 310.049 175.603 310.049 176.431V176.805H306.111C306.192 177.92 306.782 178.477 307.882 178.477C308.19 178.477 308.491 178.43 308.784 178.334C309.085 178.239 309.367 178.081 309.631 177.861L309.961 178.631C309.719 178.851 309.408 179.024 309.026 179.148C308.645 179.273 308.26 179.335 307.871 179.335ZM307.706 174.55C307.244 174.55 306.878 174.693 306.606 174.979C306.335 175.265 306.17 175.647 306.111 176.123H309.114C309.092 175.625 308.96 175.24 308.718 174.968C308.476 174.69 308.139 174.55 307.706 174.55ZM313.009 179.335C312.423 179.335 311.983 179.17 311.689 178.84C311.403 178.51 311.26 178.026 311.26 177.388V171.481H312.371V177.322C312.371 178.048 312.668 178.411 313.262 178.411C313.35 178.411 313.431 178.408 313.504 178.4C313.585 178.393 313.666 178.378 313.746 178.356L313.724 179.247C313.475 179.306 313.237 179.335 313.009 179.335ZM319.327 179.357C318.623 179.357 318.103 179.167 317.765 178.785C317.435 178.397 317.27 177.806 317.27 177.014V173.824H319.228V177.069C319.228 177.597 319.456 177.861 319.91 177.861C320.174 177.861 320.391 177.766 320.559 177.575C320.728 177.385 320.812 177.132 320.812 176.816V173.824H322.77V179.236H320.856V178.565C320.504 179.093 319.995 179.357 319.327 179.357ZM323.91 179.236V173.824H325.813V174.561C326.004 174.283 326.249 174.07 326.55 173.923C326.851 173.777 327.188 173.703 327.562 173.703C328.207 173.703 328.684 173.894 328.992 174.275C329.307 174.657 329.465 175.243 329.465 176.035V179.236H327.507V176.112C327.507 175.782 327.448 175.548 327.331 175.408C327.221 175.269 327.056 175.199 326.836 175.199C326.543 175.199 326.308 175.295 326.132 175.485C325.956 175.669 325.868 175.918 325.868 176.233V179.236H323.91ZM333.342 179.357C332.733 179.357 332.201 179.244 331.747 179.016C331.299 178.789 330.951 178.463 330.702 178.037C330.452 177.612 330.328 177.106 330.328 176.519C330.328 175.933 330.452 175.43 330.702 175.012C330.951 174.587 331.299 174.264 331.747 174.044C332.201 173.817 332.733 173.703 333.342 173.703C333.701 173.703 334.057 173.755 334.409 173.857C334.768 173.953 335.061 174.088 335.289 174.264L334.772 175.606C334.603 175.474 334.405 175.372 334.178 175.298C333.958 175.218 333.749 175.177 333.551 175.177C333.162 175.177 332.861 175.295 332.649 175.529C332.436 175.764 332.33 176.094 332.33 176.519C332.33 176.952 332.436 177.289 332.649 177.531C332.861 177.766 333.162 177.883 333.551 177.883C333.749 177.883 333.958 177.847 334.178 177.773C334.405 177.693 334.603 177.586 334.772 177.454L335.289 178.796C335.061 178.972 334.768 179.112 334.409 179.214C334.049 179.31 333.694 179.357 333.342 179.357ZM338.749 179.357C338.089 179.357 337.517 179.244 337.033 179.016C336.557 178.782 336.19 178.452 335.933 178.026C335.677 177.601 335.548 177.099 335.548 176.519C335.548 175.969 335.669 175.482 335.911 175.056C336.161 174.631 336.498 174.301 336.923 174.066C337.356 173.824 337.847 173.703 338.397 173.703C338.94 173.703 339.409 173.817 339.805 174.044C340.209 174.272 340.517 174.598 340.729 175.023C340.949 175.441 341.059 175.933 341.059 176.497V176.926H337.418C337.484 177.278 337.631 177.531 337.858 177.685C338.086 177.839 338.401 177.916 338.804 177.916C339.083 177.916 339.373 177.876 339.673 177.795C339.981 177.707 340.253 177.583 340.487 177.421L340.971 178.708C340.693 178.906 340.352 179.064 339.948 179.181C339.545 179.299 339.145 179.357 338.749 179.357ZM338.485 174.968C338.192 174.968 337.95 175.056 337.759 175.232C337.576 175.408 337.459 175.665 337.407 176.002H339.453C339.431 175.658 339.336 175.401 339.167 175.232C339.006 175.056 338.779 174.968 338.485 174.968ZM341.903 179.236V173.824H343.806V174.737C344.055 174.114 344.594 173.773 345.423 173.714L345.962 173.67L346.072 175.32L345.005 175.419C344.616 175.456 344.334 175.566 344.158 175.749C343.982 175.925 343.894 176.189 343.894 176.541V179.236H341.903ZM349.833 179.357C349.012 179.357 348.403 179.167 348.007 178.785C347.611 178.404 347.413 177.828 347.413 177.058V175.265H346.401V173.824H347.413V172.251H349.371V173.824H350.911V175.265H349.371V176.992C349.371 177.52 349.639 177.784 350.174 177.784C350.262 177.784 350.357 177.777 350.46 177.762C350.57 177.74 350.691 177.711 350.823 177.674L351.087 179.082C350.918 179.17 350.72 179.236 350.493 179.28C350.266 179.332 350.046 179.357 349.833 179.357ZM353.559 179.357C353.141 179.357 352.771 179.28 352.448 179.126C352.133 178.972 351.884 178.763 351.7 178.499C351.524 178.228 351.436 177.92 351.436 177.575C351.436 177.187 351.539 176.879 351.744 176.651C351.95 176.417 352.28 176.252 352.734 176.156C353.189 176.054 353.794 176.002 354.549 176.002H354.967V175.848C354.967 175.584 354.898 175.397 354.758 175.287C354.626 175.177 354.395 175.122 354.065 175.122C353.787 175.122 353.479 175.166 353.141 175.254C352.804 175.342 352.474 175.478 352.151 175.661L351.656 174.374C351.84 174.242 352.074 174.125 352.36 174.022C352.646 173.92 352.947 173.843 353.262 173.791C353.578 173.733 353.875 173.703 354.153 173.703C355.055 173.703 355.723 173.898 356.155 174.286C356.595 174.675 356.815 175.287 356.815 176.123V179.236H354.989V178.466C354.894 178.745 354.722 178.965 354.472 179.126C354.223 179.28 353.919 179.357 353.559 179.357ZM353.999 178.081C354.271 178.081 354.498 177.993 354.681 177.817C354.872 177.641 354.967 177.41 354.967 177.124V176.926H354.549C354.117 176.926 353.798 176.974 353.592 177.069C353.394 177.157 353.295 177.3 353.295 177.498C353.295 177.667 353.354 177.806 353.471 177.916C353.596 178.026 353.772 178.081 353.999 178.081ZM357.875 172.889V171.118H359.932V172.889H357.875ZM357.93 179.236V173.824H359.888V179.236H357.93ZM361.024 179.236V173.824H362.927V174.561C363.118 174.283 363.363 174.07 363.664 173.923C363.965 173.777 364.302 173.703 364.676 173.703C365.321 173.703 365.798 173.894 366.106 174.275C366.421 174.657 366.579 175.243 366.579 176.035V179.236H364.621V176.112C364.621 175.782 364.562 175.548 364.445 175.408C364.335 175.269 364.17 175.199 363.95 175.199C363.657 175.199 363.422 175.295 363.246 175.485C363.07 175.669 362.982 175.918 362.982 176.233V179.236H361.024Z" fill="#191919"/>
</g>
<defs>
<filter id="filter0_d" x="157" y="135.286" width="122" height="83.6309" filterUnits="userSpaceOnUse" color-interpolation-filters="sRGB">
<feFlood flood-opacity="0" result="BackgroundImageFix"/>
<feColorMatrix in="SourceAlpha" type="matrix" values="0 0 0 0 0 0 0 0 0 0 0 0 0 0 0 0 0 0 127 0"/>
<feOffset dy="2"/>
<feGaussianBlur stdDeviation="5"/>
<feColorMatrix type="matrix" values="0 0 0 0 0.223529 0 0 0 0 0.223529 0 0 0 0 0.223529 0 0 0 0.1 0"/>
<feBlend mode="normal" in2="BackgroundImageFix" result="effect1_dropShadow"/>
<feBlend mode="normal" in="SourceGraphic" in2="effect1_dropShadow" result="shape"/>
</filter>
<filter id="filter1_d" x="277" y="135.286" width="122" height="83.6309" filterUnits="userSpaceOnUse" color-interpolation-filters="sRGB">
<feFlood flood-opacity="0" result="BackgroundImageFix"/>
<feColorMatrix in="SourceAlpha" type="matrix" values="0 0 0 0 0 0 0 0 0 0 0 0 0 0 0 0 0 0 127 0"/>
<feOffset dy="2"/>
<feGaussianBlur stdDeviation="5"/>
<feColorMatrix type="matrix" values="0 0 0 0 0.223529 0 0 0 0 0.223529 0 0 0 0 0.223529 0 0 0 0.1 0"/>
<feBlend mode="normal" in2="BackgroundImageFix" result="effect1_dropShadow"/>
<feBlend mode="normal" in="SourceGraphic" in2="effect1_dropShadow" result="shape"/>
</filter>
<clipPath id="clip0">
<rect width="622.881" height="416" fill="white"/>
</clipPath>
<clipPath id="clip1">
<rect width="666.667" height="666.667" fill="white" transform="translate(-22 -34)"/>
</clipPath>
</defs>
</svg>
