<svg width="17" height="17" viewBox="0 0 17 17" fill="none" xmlns="http://www.w3.org/2000/svg">
<path fill-rule="evenodd" clip-rule="evenodd" d="M15.3125 1.25H7.67373L6.71748 0.29375L6.32373 0.125H0.69873L0.13623 0.6875V13.0625L0.69873 13.625H6.87498V12.5H1.23873V5.75H6.28998L6.68373 5.58125L7.65123 4.61375H14.75V6.30125L14.7489 6.875H15.8862V1.8125L15.3125 1.25ZM14.7387 3.5H7.42623L7.03248 3.66875L6.06498 4.63625H1.24998V1.26125H6.07623L7.03248 2.2175L7.43748 2.38625H14.75L14.7387 3.5ZM13.625 17H12.5V13.625H9.12498V12.5H12.5V9.125H13.625V12.5H17V13.625H13.625V17Z" fill="#335BC0"/>
</svg>
