<svg width="18" height="18" viewBox="0 0 18 18" fill="none" xmlns="http://www.w3.org/2000/svg">
<path d="M7.56331 14.1895C7.57681 14.2021 7.58941 14.2165 7.60111 14.23C7.37659 14.17 7.15623 14.0954 6.94141 14.0068C7.05207 13.9826 7.16704 13.9867 7.27572 14.0186C7.3844 14.0505 7.4833 14.1093 7.56331 14.1895Z" fill="#335BC0"/>
<path d="M5.79245 13.2341C5.76835 13.2582 5.74248 13.2804 5.71505 13.3007C5.3611 13.0295 5.0419 12.7157 4.76465 12.3665C4.81862 12.2901 4.88788 12.2258 4.96803 12.1776C5.04817 12.1294 5.13746 12.0984 5.23022 12.0865C5.32299 12.0746 5.4172 12.0822 5.5069 12.1086C5.5966 12.1351 5.67982 12.1799 5.75128 12.2403C5.82275 12.3006 5.88089 12.3751 5.92204 12.4591C5.96319 12.5431 5.98643 12.6347 5.9903 12.7281C5.99417 12.8216 5.97858 12.9148 5.94452 13.0019C5.91046 13.089 5.85868 13.1681 5.79245 13.2341Z" fill="#335BC0"/>
<path d="M3.93392 10.4837C4.03041 10.5801 4.09539 10.7036 4.12029 10.8378C4.14519 10.9719 4.12885 11.1105 4.07342 11.2352C3.94573 10.953 3.84275 10.6603 3.76562 10.3604C3.82778 10.3925 3.88455 10.4341 3.93392 10.4837Z" fill="#335BC0"/>
<path d="M3.93404 7.80705C3.86708 7.87408 3.78673 7.92621 3.69824 7.96005C3.76754 7.60635 3.87194 7.26525 4.00784 6.93945C4.09994 7.06951 4.14305 7.22796 4.12954 7.38674C4.11603 7.54553 4.04678 7.69442 3.93404 7.80705Z" fill="#335BC0"/>
<path d="M4.8377 6.03665C4.76361 5.96264 4.70782 5.87234 4.6748 5.77295C4.9133 5.45525 5.186 5.16455 5.48751 4.90625C5.58777 4.93267 5.6806 4.98183 5.7588 5.04992C5.83699 5.11801 5.89845 5.2032 5.9384 5.29888C5.97835 5.39456 5.99572 5.49816 5.98917 5.60164C5.98262 5.70512 5.95231 5.8057 5.90061 5.89557C5.8489 5.98545 5.77719 6.0622 5.69103 6.11988C5.60486 6.17756 5.50657 6.21462 5.40378 6.22818C5.30098 6.24173 5.19644 6.23143 5.09827 6.19806C5.0001 6.16469 4.91094 6.10915 4.8377 6.03575V6.03665Z" fill="#335BC0"/>
<path d="M6.60896 4.29023C6.58194 4.26326 6.55726 4.23405 6.53516 4.20293C6.92333 4.00369 7.33437 3.85257 7.75916 3.75293C7.77216 3.89132 7.74206 4.03034 7.67299 4.15096C7.60392 4.27158 7.49925 4.3679 7.37331 4.42672C7.24738 4.48555 7.10634 4.50401 6.96951 4.47958C6.83268 4.45514 6.70674 4.38901 6.60896 4.29023Z" fill="#335BC0"/>
<path d="M10.1582 14.2859C10.4372 14.2247 10.7072 14.1419 10.9682 14.0402C10.8254 13.9826 10.6672 13.9756 10.5199 14.0203C10.3726 14.065 10.245 14.1587 10.1582 14.2859Z" fill="#335BC0"/>
<path d="M12.1776 13.3738C12.5412 13.1092 12.8706 12.7996 13.1568 12.4531C13.0989 12.3794 13.0263 12.3187 12.9436 12.2746C12.8609 12.2305 12.77 12.2042 12.6765 12.1972C12.5831 12.1902 12.4892 12.2027 12.4009 12.234C12.3126 12.2653 12.2318 12.3146 12.1636 12.3788C12.0953 12.443 12.0412 12.5207 12.0047 12.607C11.9681 12.6932 11.9499 12.7861 11.9512 12.8798C11.9526 12.9735 11.9734 13.0659 12.0123 13.1511C12.0513 13.2363 12.1076 13.3124 12.1776 13.3747V13.3738Z" fill="#335BC0"/>
<path d="M13.8286 11.4231C14.0077 11.0658 14.1472 10.686 14.2435 10.2891C14.119 10.3032 14.0008 10.3517 13.9023 10.4292C13.8037 10.5067 13.7287 10.6101 13.6856 10.7278C13.6426 10.8456 13.6331 10.973 13.6584 11.0958C13.6836 11.2186 13.7426 11.3319 13.8286 11.4231Z" fill="#335BC0"/>
<path d="M14.3024 8.00333C14.2243 7.5897 14.0977 7.18672 13.9253 6.80273C13.8187 6.88765 13.7403 7.00284 13.7004 7.13314C13.6606 7.26344 13.6611 7.40276 13.7019 7.53277C13.7427 7.66279 13.8219 7.7774 13.9291 7.86155C14.0362 7.9457 14.1664 7.99544 14.3024 8.00423V8.00333Z" fill="#335BC0"/>
<path d="M13.2806 5.72448C13.0479 5.42158 12.784 5.14405 12.4931 4.89648C12.3748 4.92028 12.265 4.97538 12.1752 5.05603C12.0853 5.13669 12.0188 5.23995 11.9825 5.35506C11.9461 5.47018 11.9413 5.59292 11.9686 5.71052C11.9958 5.82812 12.0541 5.93627 12.1373 6.02369C12.2206 6.11111 12.3257 6.17461 12.4418 6.20758C12.558 6.24055 12.6808 6.24177 12.7975 6.21112C12.9143 6.18047 13.0207 6.11908 13.1057 6.03333C13.1906 5.94758 13.251 5.84062 13.2806 5.72358V5.72448Z" fill="#335BC0"/>
<path d="M11.193 4.28987C11.2399 4.24313 11.2796 4.18976 11.3109 4.13147C10.909 3.9404 10.4848 3.80012 10.0482 3.71387C10.0275 3.85424 10.0516 3.99757 10.117 4.12348C10.1824 4.24939 10.2859 4.35149 10.4126 4.41526C10.5394 4.47904 10.683 4.50125 10.8231 4.47874C10.9632 4.45623 11.0926 4.39014 11.193 4.28987Z" fill="#335BC0"/>
<path d="M9.47305 5.08155C9.53937 5.14335 9.59256 5.21787 9.62946 5.30067C9.66635 5.38347 9.68619 5.47285 9.68779 5.56348C9.68938 5.65412 9.67271 5.74414 9.63876 5.82819C9.60482 5.91224 9.55428 5.98859 9.49019 6.05269C9.42609 6.11678 9.34974 6.16731 9.26569 6.20126C9.18164 6.23521 9.09162 6.25188 9.00098 6.25029C8.91035 6.24869 8.82097 6.22885 8.73817 6.19196C8.65537 6.15506 8.58085 6.10187 8.51905 6.03555C8.39982 5.9076 8.33491 5.73835 8.338 5.56348C8.34108 5.38861 8.41192 5.22177 8.53559 5.09809C8.65927 4.97442 8.82611 4.90358 9.00098 4.9005C9.17585 4.89741 9.3451 4.96232 9.47305 5.08155Z" fill="#335BC0"/>
<path d="M7.56387 6.85304C7.63019 6.91483 7.68338 6.98935 7.72028 7.07215C7.75717 7.15495 7.77701 7.24433 7.77861 7.33497C7.78021 7.4256 7.76353 7.51563 7.72958 7.59968C7.69563 7.68372 7.64511 7.76008 7.58101 7.82417C7.51691 7.88827 7.44056 7.9388 7.35651 7.97275C7.27246 8.0067 7.18244 8.02337 7.0918 8.02177C7.00117 8.02017 6.91179 8.00033 6.82899 7.96344C6.74619 7.92655 6.67167 7.87336 6.60987 7.80704C6.49064 7.67908 6.42573 7.50984 6.42882 7.33497C6.4319 7.1601 6.50274 6.99325 6.62641 6.86958C6.75009 6.74591 6.91693 6.67507 7.0918 6.67198C7.26667 6.66889 7.43592 6.73381 7.56387 6.85304Z" fill="#335BC0"/>
<path d="M5.79231 9.71712C5.91894 9.59049 5.99008 9.41875 5.99008 9.23967C5.99008 9.06059 5.91894 8.88885 5.79231 8.76222C5.66569 8.63559 5.49394 8.56445 5.31486 8.56445C5.13578 8.56445 4.96404 8.63559 4.83741 8.76222C4.71818 8.89018 4.65327 9.05942 4.65636 9.23429C4.65944 9.40916 4.73028 9.57601 4.85395 9.69968C4.97763 9.82335 5.14447 9.89419 5.31934 9.89728C5.49421 9.90036 5.66346 9.83545 5.79141 9.71622L5.79231 9.71712Z" fill="#335BC0"/>
<path d="M7.56387 10.4829C7.63019 10.5447 7.68338 10.6192 7.72028 10.702C7.75717 10.7848 7.77701 10.8742 7.77861 10.9649C7.78021 11.0555 7.76353 11.1455 7.72958 11.2296C7.69563 11.3136 7.64511 11.39 7.58101 11.4541C7.51691 11.5182 7.44056 11.5687 7.35651 11.6026C7.27246 11.6366 7.18244 11.6533 7.0918 11.6517C7.00117 11.6501 6.91179 11.6302 6.82899 11.5933C6.74619 11.5564 6.67167 11.5032 6.60987 11.4369C6.49064 11.309 6.42573 11.1397 6.42882 10.9649C6.4319 10.79 6.50274 10.6231 6.62641 10.4995C6.75009 10.3758 6.91693 10.3049 7.0918 10.3019C7.26667 10.2988 7.43592 10.3637 7.56387 10.4829Z" fill="#335BC0"/>
<path d="M9.47298 9.71712C9.5996 9.59049 9.67074 9.41875 9.67074 9.23967C9.67074 9.06059 9.5996 8.88885 9.47298 8.76222C9.34635 8.63559 9.1746 8.56445 8.99553 8.56445C8.81645 8.56445 8.6447 8.63559 8.51808 8.76222C8.39884 8.89018 8.33393 9.05942 8.33702 9.23429C8.3401 9.40916 8.41095 9.57601 8.53462 9.69968C8.65829 9.82335 8.82514 9.89419 9.00001 9.89728C9.17488 9.90036 9.34412 9.83545 9.47208 9.71622L9.47298 9.71712Z" fill="#335BC0"/>
<path d="M11.1938 6.85304C11.2601 6.91483 11.3133 6.98935 11.3502 7.07215C11.3871 7.15495 11.4069 7.24433 11.4085 7.33497C11.4101 7.4256 11.3934 7.51563 11.3595 7.59968C11.3255 7.68372 11.275 7.76008 11.2109 7.82417C11.1468 7.88827 11.0704 7.9388 10.9864 7.97275C10.9023 8.0067 10.8123 8.02337 10.7217 8.02177C10.6311 8.02017 10.5417 8.00033 10.4589 7.96344C10.3761 7.92655 10.3016 7.87336 10.2398 7.80704C10.1205 7.67908 10.0556 7.50984 10.0587 7.33497C10.0618 7.1601 10.1326 6.99325 10.2563 6.86958C10.38 6.74591 10.5468 6.67507 10.7217 6.67198C10.8966 6.66889 11.0658 6.73381 11.1938 6.85304Z" fill="#335BC0"/>
<path d="M13.1029 9.69155C13.1673 9.62925 13.2187 9.55474 13.254 9.47237C13.2894 9.39 13.3079 9.30142 13.3087 9.2118C13.3094 9.12217 13.2923 9.03329 13.2583 8.95036C13.2243 8.86742 13.1742 8.79208 13.1108 8.72873C13.0474 8.66538 12.972 8.6153 12.889 8.58139C12.806 8.54749 12.7171 8.53046 12.6275 8.53128C12.5379 8.5321 12.4493 8.55076 12.367 8.58618C12.2847 8.62159 12.2102 8.67305 12.148 8.73755C12.0287 8.8655 11.9638 9.03475 11.9669 9.20962C11.97 9.38449 12.0408 9.55133 12.1645 9.675C12.2882 9.79868 12.455 9.86952 12.6299 9.8726C12.8048 9.87569 12.974 9.81078 13.102 9.69155H13.1029Z" fill="#335BC0"/>
<path d="M11.1811 10.521C11.2474 10.5828 11.3006 10.6573 11.3375 10.7401C11.3744 10.8229 11.3942 10.9123 11.3958 11.0029C11.3974 11.0936 11.3807 11.1836 11.3468 11.2676C11.3128 11.3517 11.2623 11.428 11.1982 11.4921C11.1341 11.5562 11.0577 11.6068 10.9737 11.6407C10.8896 11.6747 10.7996 11.6913 10.709 11.6897C10.6184 11.6881 10.529 11.6683 10.4462 11.6314C10.3634 11.5945 10.2889 11.5413 10.2271 11.475C10.1078 11.347 10.0429 11.1778 10.046 11.0029C10.0491 10.8281 10.1199 10.6612 10.2436 10.5375C10.3673 10.4139 10.5341 10.343 10.709 10.3399C10.8839 10.3369 11.0531 10.4018 11.1811 10.521Z" fill="#335BC0"/>
<path d="M9.28458 13.2343C9.3509 13.1725 9.40409 13.098 9.44098 13.0152C9.47787 12.9324 9.49771 12.843 9.49931 12.7523C9.50091 12.6617 9.48424 12.5717 9.45029 12.4876C9.41634 12.4036 9.36581 12.3272 9.30171 12.2631C9.23761 12.199 9.16126 12.1485 9.07722 12.1146C8.99317 12.0806 8.90314 12.0639 8.81251 12.0655C8.72187 12.0671 8.63249 12.087 8.54969 12.1239C8.46689 12.1608 8.39237 12.2139 8.33058 12.2803C8.21134 12.4082 8.14643 12.5775 8.14952 12.7523C8.1526 12.9272 8.22345 13.0941 8.34712 13.2177C8.47079 13.3414 8.63764 13.4122 8.81251 13.4153C8.98738 13.4184 9.15662 13.3535 9.28458 13.2343Z" fill="#335BC0"/>
<path fill-rule="evenodd" clip-rule="evenodd" d="M18 9C18 13.9707 13.9707 18 9 18C4.0293 18 0 13.9707 0 9C0 4.0293 4.0293 0 9 0C13.9707 0 18 4.0293 18 9ZM16.2 9C16.2 10.9096 15.4414 12.7409 14.0912 14.0912C12.7409 15.4414 10.9096 16.2 9 16.2C7.09044 16.2 5.25909 15.4414 3.90883 14.0912C2.55857 12.7409 1.8 10.9096 1.8 9C1.8 7.09044 2.55857 5.25909 3.90883 3.90883C5.25909 2.55857 7.09044 1.8 9 1.8C10.9096 1.8 12.7409 2.55857 14.0912 3.90883C15.4414 5.25909 16.2 7.09044 16.2 9Z" fill="#335BC0"/>
</svg>
