<svg width="14" height="14" viewBox="0 0 14 14" fill="none" xmlns="http://www.w3.org/2000/svg">
<path d="M13.4616 6.46138H7.53862V0.538448C7.53862 0.395643 7.4819 0.258686 7.38092 0.157708C7.27994 0.0567293 7.14298 0 7.00018 0C6.85737 0 6.72041 0.0567293 6.61944 0.157708C6.51846 0.258686 6.46173 0.395643 6.46173 0.538448V6.46138H0.538801C0.395996 6.46138 0.259039 6.5181 0.158061 6.61908C0.0570821 6.72006 0.000352835 6.85702 0.000352835 6.99982C-0.0023042 7.0698 0.0100701 7.13954 0.0366416 7.20433C0.0632132 7.26912 0.103365 7.32747 0.15439 7.37543C0.205416 7.4234 0.26613 7.45987 0.332441 7.48238C0.398752 7.5049 0.469119 7.51294 0.538801 7.50597H6.46173V13.4612C6.46173 13.604 6.51846 13.741 6.61944 13.8419C6.72041 13.9429 6.85737 13.9996 7.00018 13.9996C7.14298 13.9996 7.27994 13.9429 7.38092 13.8419C7.4819 13.741 7.53862 13.604 7.53862 13.4612V7.53827H13.4616C13.6044 7.53827 13.7413 7.48154 13.8423 7.38056C13.9433 7.27959 14 7.14263 14 6.99982C14 6.85702 13.9433 6.72006 13.8423 6.61908C13.7413 6.5181 13.6044 6.46138 13.4616 6.46138Z" fill="#335BC0"/>
</svg>
