<svg width="20" height="20" viewBox="0 0 20 20" fill="none" xmlns="http://www.w3.org/2000/svg">
<path d="M6.225 17.9167C3.5 16.6083 1.55 13.9667 1.25 10.8333H0C0.416667 15.9667 4.71667 20 9.95833 20C10.15 20 10.325 20 10.5083 19.975L7.33333 16.7917L6.225 17.9167ZM10.0417 0C9.85 0 9.675 0 9.49167 0.0333333L12.6667 3.20833L13.775 2.08333C16.5 3.39167 18.45 6.03333 18.75 9.16667H20C19.5833 4.03333 15.2833 0 10.0417 0ZM13.3333 11.6667H15V6.66667C15 6.22464 14.8244 5.80072 14.5118 5.48816C14.1993 5.17559 13.7754 5 13.3333 5H8.33333V6.66667H13.3333V11.6667ZM6.66667 13.3333V3.33333H5V5H3.33333V6.66667H5V13.3333C5 13.7754 5.17559 14.1993 5.48816 14.5118C5.80072 14.8244 6.22464 15 6.66667 15H13.3333V16.6667H15V15H16.6667V13.3333H6.66667Z" fill="#335BC0"/>
</svg>
