<svg width="20" height="16" viewBox="0 0 20 16" fill="none" xmlns="http://www.w3.org/2000/svg">
<path d="M1.99653 10.6667V12.4444H3.77431V10.6667H1.99653ZM12.6632 14.2222V16H14.441V14.2222H12.6632ZM16.2188 0H3.77431C2.79653 0 1.99653 0.8 1.99653 1.77778V5.33333H3.77431V1.77778H16.2188V5.33333H17.9965V1.77778C17.9965 0.8 17.1965 0 16.2188 0ZM17.9965 14.2222H16.2188V16C17.1965 16 17.9965 15.2 17.9965 14.2222ZM0.21875 7.11111V8.88889H19.7743V7.11111H0.21875ZM5.55208 14.2222V16H7.32986V14.2222H5.55208ZM16.2188 10.6667V12.4444H17.9965V10.6667H16.2188ZM9.10764 14.2222V16H10.8854V14.2222H9.10764ZM1.99653 14.2222C1.99653 15.2 2.79653 16 3.77431 16V14.2222H1.99653Z" fill="#335BC0"/>
</svg>
